<svg width="119" height="35" viewBox="0 0 119 35" fill="none" xmlns="http://www.w3.org/2000/svg">
<path d="M114.766 35H4.16853C1.8705 35 0 33.138 0 30.8586V4.13525C0 1.855 1.8705 0 4.16853 0H114.766C117.063 0 119 1.855 119 4.13525V30.8586C119 33.138 117.063 35 114.766 35Z" fill="#A6A6A6"/>
<path d="M118.147 30.8596C118.147 32.7111 116.636 34.2108 114.767 34.2108H4.16855C2.30069 34.2108 0.784546 32.7111 0.784546 30.8596V4.13443C0.784546 2.28381 2.30069 0.778809 4.16855 0.778809H114.766C116.636 0.778809 118.146 2.28381 118.146 4.13443L118.147 30.8596Z" fill="black"/>
<path d="M26.5573 17.3109C26.5318 14.4908 28.8836 13.1188 28.9911 13.0549C27.6592 11.1273 25.5947 10.8639 24.8693 10.8429C23.1354 10.6618 21.4536 11.8728 20.5703 11.8728C19.6694 11.8728 18.3093 10.8604 16.8434 10.8902C14.957 10.9191 13.1923 12.0032 12.2244 13.6867C10.227 17.1193 11.7167 22.1637 13.6304 24.9383C14.5877 26.2972 15.7063 27.8144 17.1704 27.7611C18.6028 27.7024 19.1379 26.8546 20.8665 26.8546C22.5792 26.8546 23.0816 27.7611 24.5749 27.7269C26.1122 27.7024 27.08 26.3619 28.0038 24.9908C29.1101 23.4333 29.5544 21.8994 29.572 21.8207C29.5359 21.8084 26.5864 20.6911 26.5573 17.3109Z" fill="white"/>
<path d="M23.7366 9.01769C24.507 8.06132 25.0341 6.76019 24.8878 5.43982C23.7727 5.48882 22.3782 6.20544 21.5752 7.14082C20.8647 7.96507 20.2301 9.31607 20.394 10.5866C21.6466 10.6793 22.9327 9.9592 23.7366 9.01769Z" fill="white"/>
<path d="M47.2871 27.566H45.2853L44.1887 24.1456H40.3772L39.3326 27.566H37.3837L41.1599 15.9215H43.4923L47.2871 27.566ZM43.8582 22.7106L42.8665 19.67C42.7616 19.3594 42.565 18.6279 42.275 17.4764H42.2397C42.1243 17.9716 41.9383 18.7031 41.6827 19.67L40.7086 22.7106H43.8582Z" fill="white"/>
<path d="M56.9984 23.2644C56.9984 24.6924 56.6097 25.8212 55.8322 26.6498C55.1359 27.3874 54.2711 27.7558 53.2389 27.7558C52.1247 27.7558 51.3243 27.3586 50.8369 26.5641H50.8016V30.9872H48.9223V21.9336C48.9223 21.0358 48.8985 20.1144 48.8527 19.1694H50.5054L50.6103 20.5003H50.6456C51.2723 19.4976 52.2234 18.9971 53.4998 18.9971C54.4977 18.9971 55.3307 19.3882 55.9971 20.1713C56.6652 20.9553 56.9984 21.9861 56.9984 23.2644ZM55.0839 23.3327C55.0839 22.5154 54.8987 21.8417 54.5268 21.3114C54.1204 20.7584 53.5748 20.4819 52.8907 20.4819C52.4271 20.4819 52.0057 20.6359 51.6293 20.9396C51.2521 21.2458 51.0052 21.6457 50.8898 22.1409C50.8316 22.3719 50.8025 22.5609 50.8025 22.7097V24.1097C50.8025 24.7204 50.9911 25.2358 51.3684 25.6567C51.7457 26.0776 52.2358 26.2876 52.8387 26.2876C53.5465 26.2876 54.0975 26.0163 54.4915 25.4756C54.8864 24.9339 55.0839 24.2199 55.0839 23.3327Z" fill="white"/>
<path d="M66.7273 23.2644C66.7273 24.6924 66.3386 25.8212 65.5602 26.6498C64.8647 27.3874 64 27.7558 62.9678 27.7558C61.8536 27.7558 61.0532 27.3586 60.5666 26.5641H60.5314V30.9872H58.652V21.9336C58.652 21.0358 58.6282 20.1144 58.5824 19.1694H60.2352L60.3401 20.5003H60.3753C61.0012 19.4976 61.9523 18.9971 63.2296 18.9971C64.2265 18.9971 65.0595 19.3882 65.7277 20.1713C66.3932 20.9553 66.7273 21.9861 66.7273 23.2644ZM64.8127 23.3327C64.8127 22.5154 64.6267 21.8417 64.2547 21.3114C63.8484 20.7584 63.3045 20.4819 62.6196 20.4819C62.155 20.4819 61.7346 20.6359 61.3573 20.9396C60.98 21.2458 60.7341 21.6457 60.6186 22.1409C60.5613 22.3719 60.5314 22.5609 60.5314 22.7097V24.1097C60.5314 24.7204 60.72 25.2358 61.0955 25.6567C61.4728 26.0767 61.9629 26.2876 62.5676 26.2876C63.2754 26.2876 63.8263 26.0163 64.2204 25.4756C64.6153 24.9339 64.8127 24.2199 64.8127 23.3327Z" fill="white"/>
<path d="M77.6048 24.3005C77.6048 25.291 77.2584 26.0969 76.5629 26.719C75.7986 27.3989 74.7347 27.7384 73.3675 27.7384C72.1052 27.7384 71.0933 27.4969 70.3273 27.013L70.7627 25.4581C71.5878 25.9534 72.4931 26.2019 73.4795 26.2019C74.1873 26.2019 74.7382 26.0426 75.134 25.7259C75.528 25.4091 75.7246 24.9839 75.7246 24.4536C75.7246 23.9811 75.5624 23.583 75.2371 23.2601C74.9136 22.9372 74.3733 22.6371 73.6187 22.3597C71.5649 21.5994 70.5388 20.4855 70.5388 19.0207C70.5388 18.0635 70.8985 17.2786 71.6186 16.6679C72.3362 16.0562 73.2935 15.7509 74.4905 15.7509C75.558 15.7509 76.4448 15.9355 77.1526 16.3039L76.6828 17.8246C76.0216 17.4676 75.2741 17.2891 74.4376 17.2891C73.7765 17.2891 73.26 17.451 72.8897 17.773C72.5768 18.0609 72.4199 18.4117 72.4199 18.8274C72.4199 19.2876 72.5989 19.6682 72.9585 19.9675C73.2714 20.244 73.84 20.5432 74.665 20.8661C75.6743 21.2695 76.4157 21.7411 76.8926 22.2819C77.3677 22.8209 77.6048 23.4955 77.6048 24.3005Z" fill="white"/>
<path d="M83.8184 20.5695H81.7469V24.6461C81.7469 25.683 82.1118 26.201 82.8434 26.201C83.1793 26.201 83.4578 26.1721 83.6782 26.1144L83.7302 27.531C83.36 27.6684 82.8725 27.7375 82.2687 27.7375C81.5265 27.7375 80.9465 27.5126 80.5278 27.0638C80.1109 26.614 79.9011 25.8598 79.9011 24.8001V20.5678H78.667V19.1678H79.9011V17.6304L81.7469 17.0774V19.1678H83.8184V20.5695Z" fill="white"/>
<path d="M93.1647 23.2986C93.1647 24.5892 92.7927 25.6488 92.0505 26.4774C91.2721 27.3306 90.2391 27.7558 88.9512 27.7558C87.7101 27.7558 86.7219 27.3472 85.985 26.5299C85.2481 25.7127 84.8796 24.681 84.8796 23.4377C84.8796 22.1365 85.2587 21.0708 86.0194 20.2422C86.7783 19.4127 87.8026 18.9979 89.0905 18.9979C90.3316 18.9979 91.3303 19.4066 92.084 20.2247C92.805 21.0183 93.1647 22.0429 93.1647 23.2986ZM91.2148 23.3589C91.2148 22.5845 91.0482 21.9204 90.7106 21.3666C90.3166 20.6963 89.7533 20.362 89.0235 20.362C88.2681 20.362 87.6942 20.6972 87.3002 21.3666C86.9626 21.9213 86.796 22.5959 86.796 23.3939C86.796 24.1683 86.9626 24.8324 87.3002 25.3854C87.7066 26.0557 88.2742 26.3899 89.0067 26.3899C89.7243 26.3899 90.2875 26.0487 90.6939 25.3679C91.0403 24.8036 91.2148 24.1324 91.2148 23.3589Z" fill="white"/>
<path d="M99.2733 20.8101C99.0873 20.7759 98.889 20.7584 98.681 20.7584C98.0199 20.7584 97.5086 21.0061 97.149 21.5022C96.836 21.9397 96.6791 22.4927 96.6791 23.1603V27.5659H94.8007L94.8183 21.8137C94.8183 20.8459 94.7945 19.9648 94.7478 19.1703H96.3847L96.4535 20.7768H96.5055C96.7038 20.2247 97.0167 19.7802 97.4451 19.4468C97.8638 19.1467 98.316 18.9971 98.8035 18.9971C98.9771 18.9971 99.1341 19.0093 99.2733 19.0312V20.8101Z" fill="white"/>
<path d="M107.678 22.9704C107.678 23.3047 107.656 23.5864 107.61 23.8166H101.972C101.994 24.6461 102.266 25.2804 102.79 25.7179C103.265 26.1091 103.879 26.3051 104.634 26.3051C105.468 26.3051 106.23 26.1729 106.915 25.9078L107.209 27.2028C106.409 27.5493 105.464 27.7217 104.374 27.7217C103.062 27.7217 102.032 27.3384 101.283 26.5728C100.536 25.8072 100.161 24.7791 100.161 23.4893C100.161 22.2232 100.509 21.1688 101.206 20.3279C101.936 19.4302 102.923 18.9813 104.164 18.9813C105.383 18.9813 106.306 19.4302 106.933 20.3279C107.429 21.0411 107.678 21.9231 107.678 22.9704ZM105.886 22.4866C105.899 21.9336 105.776 21.4558 105.521 21.0524C105.196 20.5336 104.696 20.2746 104.024 20.2746C103.409 20.2746 102.909 20.5274 102.528 21.0349C102.215 21.4383 102.029 21.9222 101.972 22.4857H105.886V22.4866Z" fill="white"/>
<path d="M43.2367 8.75786C43.2367 9.78773 42.9256 10.563 42.3041 11.0836C41.7285 11.564 40.9105 11.8046 39.8509 11.8046C39.3256 11.8046 38.876 11.7819 38.4996 11.7364V6.10923C38.9906 6.03048 39.5195 5.99023 40.0907 5.99023C41.1 5.99023 41.8607 6.20811 42.3737 6.64386C42.9485 7.13648 43.2367 7.84086 43.2367 8.75786ZM42.2627 8.78323C42.2627 8.11561 42.0846 7.60373 41.7285 7.24673C41.3724 6.89061 40.8523 6.71211 40.1674 6.71211C39.8765 6.71211 39.6288 6.73136 39.4234 6.77161V11.0495C39.5371 11.067 39.7452 11.0749 40.0475 11.0749C40.7545 11.0749 41.3001 10.8797 41.6844 10.4895C42.0688 10.0992 42.2627 9.53048 42.2627 8.78323Z" fill="white"/>
<path d="M48.4013 9.65729C48.4013 10.2917 48.2189 10.8114 47.8539 11.2192C47.4714 11.6383 46.9645 11.8474 46.3316 11.8474C45.7216 11.8474 45.2359 11.647 44.8737 11.2445C44.5122 10.8429 44.3315 10.3363 44.3315 9.72554C44.3315 9.08679 44.5175 8.56267 44.8913 8.15579C45.265 7.74892 45.7675 7.54504 46.4004 7.54504C47.0104 7.54504 47.5005 7.74542 47.8716 8.14704C48.2242 8.53729 48.4013 9.04129 48.4013 9.65729ZM47.4432 9.68704C47.4432 9.30642 47.3603 8.98004 47.1955 8.70792C47.0016 8.37892 46.7256 8.21442 46.3669 8.21442C45.9958 8.21442 45.7137 8.37892 45.5198 8.70792C45.3541 8.98004 45.2721 9.31167 45.2721 9.70367C45.2721 10.0843 45.3549 10.4107 45.5198 10.6828C45.7199 11.0118 45.9984 11.1763 46.3581 11.1763C46.7107 11.1763 46.9874 11.0092 47.1867 10.674C47.3577 10.3967 47.4432 10.0677 47.4432 9.68704Z" fill="white"/>
<path d="M55.3262 7.62903L54.026 11.7538H53.1798L52.6412 9.96265C52.5046 9.51553 52.3935 9.07103 52.3071 8.63003H52.2904C52.2101 9.08328 52.0991 9.5269 51.9563 9.96265L51.3842 11.7538H50.5283L49.3057 7.62903H50.255L50.7248 9.5899C50.8386 10.0537 50.932 10.4955 51.0069 10.9138H51.0237C51.0924 10.569 51.2061 10.1298 51.3666 9.59865L51.9563 7.6299H52.7091L53.2741 9.55665C53.4107 10.0265 53.5218 10.4789 53.6073 10.9147H53.6329C53.6954 10.4903 53.7898 10.0379 53.9149 9.55665L54.4191 7.6299H55.3262V7.62903Z" fill="white"/>
<path d="M60.1153 11.7539H59.1915V9.39136C59.1915 8.66336 58.913 8.29936 58.3541 8.29936C58.08 8.29936 57.8587 8.39911 57.6868 8.59948C57.5167 8.79986 57.4303 9.03611 57.4303 9.30648V11.753H56.5065V8.80773C56.5065 8.44548 56.4951 8.05261 56.473 7.62736H57.2849L57.3281 8.27223H57.3536C57.4612 8.07186 57.6216 7.90648 57.8323 7.77436C58.0826 7.62036 58.3629 7.54248 58.6697 7.54248C59.0575 7.54248 59.3801 7.66673 59.6367 7.91611C59.9558 8.22148 60.1153 8.67736 60.1153 9.28286V11.7539Z" fill="white"/>
<path d="M62.6628 11.7538H61.7399V5.73645H62.6628V11.7538Z" fill="white"/>
<path d="M68.1015 9.65729C68.1015 10.2917 67.9191 10.8114 67.5541 11.2192C67.1716 11.6383 66.6638 11.8474 66.0318 11.8474C65.421 11.8474 64.9353 11.647 64.5738 11.2445C64.2124 10.8429 64.0317 10.3363 64.0317 9.72554C64.0317 9.08679 64.2177 8.56267 64.5915 8.15579C64.9652 7.74892 65.4677 7.54504 66.0997 7.54504C66.7106 7.54504 67.1998 7.74542 67.5718 8.14704C67.9244 8.53729 68.1015 9.04129 68.1015 9.65729ZM67.1425 9.68704C67.1425 9.30642 67.0596 8.98004 66.8948 8.70792C66.7018 8.37892 66.425 8.21442 66.0671 8.21442C65.6951 8.21442 65.413 8.37892 65.22 8.70792C65.0543 8.98004 64.9723 9.31167 64.9723 9.70367C64.9723 10.0843 65.0551 10.4107 65.22 10.6828C65.4201 11.0118 65.6986 11.1763 66.0583 11.1763C66.4109 11.1763 66.6868 11.0092 66.886 10.674C67.0579 10.3967 67.1425 10.0677 67.1425 9.68704Z" fill="white"/>
<path d="M72.5725 11.7538H71.743L71.6742 11.2787H71.6487C71.3648 11.6575 70.9602 11.8474 70.4349 11.8474C70.0426 11.8474 69.7253 11.7223 69.4864 11.4738C69.2696 11.248 69.1611 10.9672 69.1611 10.6338C69.1611 10.1298 69.3727 9.74567 69.7984 9.47967C70.2233 9.21367 70.821 9.08329 71.5905 9.08942V9.01242C71.5905 8.46904 71.3031 8.19779 70.7275 8.19779C70.3176 8.19779 69.9562 8.30017 69.6442 8.50317L69.4564 7.90117C69.8425 7.66404 70.3194 7.54504 70.8818 7.54504C71.9678 7.54504 72.5125 8.11379 72.5125 9.25129V10.7703C72.5125 11.1824 72.5328 11.5105 72.5725 11.7538ZM71.6134 10.3363V9.70017C70.5944 9.68267 70.0849 9.96004 70.0849 10.5314C70.0849 10.7467 70.1431 10.9077 70.2621 11.0153C70.3811 11.1229 70.5327 11.1763 70.7134 11.1763C70.9162 11.1763 71.1057 11.1124 71.2785 10.9855C71.4521 10.8578 71.5588 10.6959 71.5984 10.4973C71.6081 10.4527 71.6134 10.3984 71.6134 10.3363Z" fill="white"/>
<path d="M77.8216 11.7538H77.0019L76.9587 11.0914H76.9331C76.6713 11.5954 76.2253 11.8474 75.5985 11.8474C75.0979 11.8474 74.6809 11.6523 74.3504 11.2621C74.0198 10.8718 73.855 10.3652 73.855 9.74308C73.855 9.07545 74.0339 8.5347 74.3936 8.1217C74.7418 7.7367 75.1684 7.5442 75.6761 7.5442C76.2341 7.5442 76.6246 7.73058 76.8467 8.1042H76.8644V5.73645H77.789V10.6426C77.789 11.0442 77.7996 11.4143 77.8216 11.7538ZM76.8644 10.0143V9.32658C76.8644 9.20758 76.8555 9.11133 76.8388 9.03783C76.7868 8.81733 76.6748 8.63183 76.5047 8.4822C76.3328 8.33258 76.1257 8.25733 75.8868 8.25733C75.5421 8.25733 75.2724 8.39295 75.0741 8.66507C74.8775 8.9372 74.7779 9.28457 74.7779 9.70895C74.7779 10.1167 74.8722 10.4475 75.0617 10.7021C75.2618 10.9733 75.5316 11.109 75.8692 11.109C76.1724 11.109 76.4148 10.9961 76.599 10.7694C76.7771 10.5603 76.8644 10.3083 76.8644 10.0143Z" fill="white"/>
<path d="M85.7224 9.65729C85.7224 10.2917 85.5399 10.8114 85.175 11.2192C84.7924 11.6383 84.2865 11.8474 83.6527 11.8474C83.0436 11.8474 82.5579 11.647 82.1947 11.2445C81.8333 10.8429 81.6526 10.3363 81.6526 9.72554C81.6526 9.08679 81.8386 8.56267 82.2123 8.15579C82.5861 7.74892 83.0885 7.54504 83.7223 7.54504C84.3314 7.54504 84.8224 7.74542 85.1926 8.14704C85.5452 8.53729 85.7224 9.04129 85.7224 9.65729ZM84.7651 9.68704C84.7651 9.30642 84.6822 8.98004 84.5174 8.70792C84.3226 8.37892 84.0476 8.21442 83.6879 8.21442C83.3177 8.21442 83.0356 8.37892 82.8408 8.70792C82.6751 8.98004 82.5931 9.31167 82.5931 9.70367C82.5931 10.0843 82.676 10.4107 82.8408 10.6828C83.0409 11.0118 83.3195 11.1763 83.6791 11.1763C84.0317 11.1763 84.3094 11.0092 84.5086 10.674C84.6787 10.3967 84.7651 10.0677 84.7651 9.68704Z" fill="white"/>
<path d="M90.6895 11.7539H89.7666V9.39136C89.7666 8.66336 89.488 8.29936 88.9283 8.29936C88.6542 8.29936 88.4329 8.39911 88.2619 8.59948C88.0909 8.79986 88.0054 9.03611 88.0054 9.30648V11.753H87.0807V8.80773C87.0807 8.44548 87.0701 8.05261 87.0481 7.62736H87.8591L87.9023 8.27223H87.9278C88.0362 8.07186 88.1967 7.90648 88.4065 7.77436C88.6577 7.62036 88.9371 7.54248 89.2448 7.54248C89.6317 7.54248 89.9543 7.66673 90.2108 7.91611C90.5308 8.22148 90.6895 8.67736 90.6895 9.28286V11.7539Z" fill="white"/>
<path d="M96.9066 8.31593H95.8894V10.3197C95.8894 10.8289 96.0701 11.0836 96.4279 11.0836C96.5937 11.0836 96.7312 11.0696 96.8396 11.0407L96.8634 11.7363C96.6809 11.8046 96.4412 11.8387 96.1459 11.8387C95.7809 11.8387 95.4971 11.7284 95.2917 11.5079C95.0854 11.2874 94.9832 10.9164 94.9832 10.3958V8.31593H94.3759V7.62906H94.9832V6.87306L95.8885 6.60181V7.62818H96.9057V8.31593H96.9066Z" fill="white"/>
<path d="M101.797 11.7538H100.872V9.40883C100.872 8.66945 100.594 8.29932 100.036 8.29932C99.6074 8.29932 99.3148 8.5137 99.1543 8.94245C99.127 9.03258 99.1111 9.14283 99.1111 9.27233V11.753H98.1882V5.73645H99.1111V8.22233H99.1288C99.4197 7.76995 99.8366 7.5442 100.377 7.5442C100.76 7.5442 101.076 7.66845 101.327 7.91782C101.64 8.22845 101.797 8.69045 101.797 9.3012V11.7538Z" fill="white"/>
<path d="M106.842 9.49636C106.842 9.66086 106.829 9.79911 106.807 9.91198H104.037C104.049 10.3197 104.181 10.6304 104.438 10.8456C104.672 11.0381 104.975 11.1344 105.345 11.1344C105.755 11.1344 106.129 11.0696 106.465 10.9392L106.61 11.5762C106.216 11.746 105.752 11.8309 105.215 11.8309C104.572 11.8309 104.065 11.6427 103.698 11.2665C103.33 10.8902 103.147 10.3854 103.147 9.75186C103.147 9.12973 103.318 8.61173 103.66 8.19873C104.018 7.75773 104.502 7.53723 105.113 7.53723C105.711 7.53723 106.165 7.75773 106.472 8.19873C106.719 8.54873 106.842 8.98186 106.842 9.49636ZM105.96 9.25923C105.967 8.98711 105.906 8.75261 105.781 8.55486C105.621 8.30023 105.377 8.17248 105.046 8.17248C104.745 8.17248 104.499 8.29673 104.311 8.54611C104.158 8.74473 104.067 8.98186 104.037 9.25923H105.96Z" fill="white"/>
</svg>
