<svg width="119" height="35" viewBox="0 0 119 35" fill="none" xmlns="http://www.w3.org/2000/svg">
<path fill-rule="evenodd" clip-rule="evenodd" d="M114.591 35H4.40903C1.97903 35 0 33.0274 0 30.625V4.375C0 1.96384 1.97903 0 4.40903 0H114.591C117.019 0 119 1.96384 119 4.375V30.625C119 33.0274 117.019 35 114.591 35Z" fill="black"/>
<path fill-rule="evenodd" clip-rule="evenodd" d="M114.591 0.700436C116.629 0.700436 118.297 2.35224 118.297 4.375V30.625C118.297 32.6478 116.64 34.2996 114.591 34.2996H4.40903C2.37089 34.2996 0.70273 32.6478 0.70273 30.625V4.375C0.70273 2.35224 2.35995 0.700436 4.40903 0.700436C4.40903 0.700436 114.591 0.700436 114.591 0.700436ZM114.591 0H4.40903C1.97903 0 0 1.97257 0 4.375V30.625C0 33.0362 1.97903 35 4.40903 35H114.591C117.019 35 119 33.0362 119 30.625V4.375C119 1.97257 117.019 0 114.591 0Z" fill="#A6A6A6"/>
<path d="M62.6897 11.578C61.895 11.578 61.2251 11.3008 60.6953 10.7553C60.1699 10.2251 59.8766 9.49411 59.8897 8.74785C59.8897 7.9514 60.1612 7.27715 60.6953 6.74255C61.2229 6.19704 61.8928 5.91992 62.6875 5.91992C63.4734 5.91992 64.1433 6.19704 64.6818 6.74255C65.216 7.29461 65.4875 7.96886 65.4875 8.74785C65.4787 9.54648 65.2072 10.2207 64.6818 10.7531C64.1542 11.303 63.4844 11.578 62.6897 11.578ZM39.0443 11.578C38.2671 11.578 37.5928 11.3052 37.0411 10.7662C36.4938 10.2295 36.2158 9.55084 36.2158 8.75003C36.2158 7.94922 36.4938 7.27061 37.0411 6.73382C37.5819 6.19486 38.2561 5.9221 39.0443 5.9221C39.4295 5.9221 39.8039 5.99848 40.1629 6.1534C40.5154 6.30396 40.8022 6.50907 41.0145 6.76001L41.0671 6.82329L40.4738 7.40371L40.4125 7.3317C40.0775 6.93457 39.6288 6.74037 39.0355 6.74037C38.5057 6.74037 38.0438 6.92803 37.6629 7.29897C37.2798 7.6721 37.0849 8.16088 37.0849 8.75222C37.0849 9.34355 37.2798 9.83233 37.6629 10.2055C38.0438 10.5764 38.5057 10.7641 39.0355 10.7641C39.6003 10.7641 40.0754 10.5764 40.4453 10.2055C40.6643 9.98725 40.8 9.68177 40.8481 9.29554H38.9457V8.47946H41.6647L41.6757 8.55365C41.6954 8.69112 41.7151 8.83295 41.7151 8.96387C41.7151 9.71668 41.4874 10.3255 41.0364 10.775C40.5241 11.3074 39.8543 11.578 39.0443 11.578ZM70.4832 11.4623H69.6447L67.0768 7.36662L67.0987 8.10415V11.4601H66.2602V6.03775H67.2169L67.2432 6.07921L69.6579 9.93706L69.636 9.20172V6.03775H70.4832V11.4623V11.4623ZM56.3892 11.4623H55.5398V6.85384H54.0665V6.03775H57.8603V6.85384H56.387V11.4623H56.3892ZM53.3747 11.4623H52.5275V6.03775H53.3747V11.4623ZM48.6132 11.4623H47.766V6.85384H46.2927V6.03775H50.0865V6.85384H48.6132V11.4623ZM45.7563 11.4536H42.5075V6.03775H45.7563V6.85384H43.357V8.34199H45.5221V9.14935H43.357V10.6375H45.7563V11.4536ZM61.3171 10.1945C61.6958 10.572 62.1555 10.7619 62.6897 10.7619C63.2392 10.7619 63.6879 10.5764 64.0623 10.1945C64.4345 9.8236 64.6227 9.337 64.6227 8.75003C64.6227 8.16306 64.4345 7.67429 64.0645 7.30552C63.6858 6.92803 63.2238 6.73819 62.6919 6.73819C62.1424 6.73819 61.6936 6.92366 61.3214 7.30552C60.9493 7.67647 60.761 8.16306 60.761 8.75003C60.761 9.337 60.9471 9.82578 61.3171 10.1945Z" fill="white"/>
<path fill-rule="evenodd" clip-rule="evenodd" d="M59.8109 19.0361C57.7421 19.0361 56.0652 20.6006 56.0652 22.7587C56.0652 24.8971 57.7531 26.4812 59.8109 26.4812C61.8797 26.4812 63.5566 24.9058 63.5566 22.7587C63.5566 20.6006 61.8797 19.0361 59.8109 19.0361ZM59.8109 25.0062C58.6791 25.0062 57.7049 24.0723 57.7049 22.7499C57.7049 21.408 58.6813 20.4937 59.8109 20.4937C60.9427 20.4937 61.9169 21.408 61.9169 22.7499C61.9191 24.081 60.9427 25.0062 59.8109 25.0062ZM51.6387 19.0361C49.5699 19.0361 47.893 20.6006 47.893 22.7587C47.893 24.8971 49.5808 26.4812 51.6387 26.4812C53.7074 26.4812 55.3844 24.9058 55.3844 22.7587C55.3844 20.6006 53.7053 19.0361 51.6387 19.0361ZM51.6387 25.0062C50.5069 25.0062 49.5327 24.0723 49.5327 22.7499C49.5327 21.408 50.509 20.4937 51.6387 20.4937C52.7705 20.4937 53.7447 21.408 53.7447 22.7499C53.7447 24.081 52.7705 25.0062 51.6387 25.0062ZM41.9143 20.173V21.7484H45.7081C45.5921 22.6321 45.2988 23.2845 44.85 23.7319C44.2939 24.2861 43.4358 24.8883 41.923 24.8883C39.5915 24.8883 37.768 23.0118 37.768 20.6879C37.768 18.364 39.5915 16.4875 41.923 16.4875C43.1818 16.4875 44.0991 16.9828 44.7799 17.6156L45.9008 16.4984C44.9551 15.595 43.6963 14.9033 41.9318 14.9033C38.7334 14.9033 36.0494 17.5 36.0494 20.6792C36.0494 23.8672 38.7312 26.4551 41.9318 26.4551C43.6591 26.4551 44.9551 25.8921 45.9796 24.8316C47.0238 23.7908 47.3544 22.3223 47.3544 21.1374C47.3544 20.7687 47.326 20.437 47.2669 20.1555H41.9121C41.9143 20.1533 41.9143 20.173 41.9143 20.173ZM81.6897 21.3993C81.3766 20.5635 80.4309 19.0274 78.4913 19.0274C76.5692 19.0274 74.971 20.5352 74.971 22.7499C74.971 24.8403 76.5516 26.4725 78.6773 26.4725C80.3849 26.4725 81.3788 25.4317 81.7882 24.8207L80.5206 23.9741C80.1003 24.596 79.5158 25.004 78.6861 25.004C77.8476 25.004 77.2609 24.6243 76.8713 23.8759L81.8648 21.8139C81.8648 21.816 81.6897 21.3993 81.6897 21.3993ZM76.5976 22.643C76.5582 21.2051 77.7185 20.4741 78.5482 20.4741C79.2028 20.4741 79.7479 20.7948 79.9339 21.2618L76.5976 22.643ZM72.541 26.2499H74.1807V15.3135H72.541V26.2499ZM69.8483 19.8631H69.7892C69.4193 19.4245 68.7165 19.0274 67.819 19.0274C65.956 19.0274 64.2396 20.6617 64.2396 22.7609C64.2396 24.8513 65.9472 26.466 67.819 26.466C68.7056 26.466 69.4193 26.0667 69.7892 25.6193H69.8483V26.1539C69.8483 27.5744 69.0865 28.3403 67.8584 28.3403C66.8535 28.3403 66.2296 27.6203 65.9757 27.018L64.5505 27.6115C64.9599 28.5935 66.0523 29.8089 67.8562 29.8089C69.7783 29.8089 71.407 28.6807 71.407 25.9292V19.25H69.8571V19.8631C69.8593 19.8631 69.8483 19.8631 69.8483 19.8631ZM67.9656 25.0062C66.8338 25.0062 65.8881 24.0635 65.8881 22.7609C65.8881 21.4473 66.8338 20.4959 67.9656 20.4959C69.0865 20.4959 69.9556 21.4582 69.9556 22.7609C69.9666 24.0635 69.0887 25.0062 67.9656 25.0062ZM89.3672 15.3135H85.4463V26.2499H87.086V22.1084H89.3694C91.1842 22.1084 92.9684 20.797 92.9684 18.7153C92.9684 16.6337 91.1908 15.3135 89.3672 15.3135ZM89.4153 20.581H87.0838V16.8279H89.4153C90.6435 16.8279 91.3374 17.8382 91.3374 18.7044C91.3374 19.562 90.6347 20.581 89.4153 20.581ZM99.5403 19.0165C98.3494 19.0165 97.1213 19.5423 96.6134 20.6879L98.067 21.2902C98.3801 20.6879 98.9536 20.4828 99.56 20.4828C100.409 20.4828 101.268 20.989 101.287 21.8924V22.0081C100.994 21.8422 100.35 21.5891 99.5797 21.5891C98.0101 21.5891 96.4185 22.4445 96.4185 24.0483C96.4185 25.5168 97.7058 26.4594 99.1397 26.4594C100.241 26.4594 100.847 25.9641 101.226 25.3902H101.285V26.2369H102.866V22.0473C102.866 20.0966 101.412 19.0165 99.5403 19.0165ZM99.3345 25.0062C98.7982 25.0062 98.0473 24.7443 98.0473 24.0723C98.0473 23.2256 98.9843 22.9049 99.7833 22.9049C100.506 22.9049 100.847 23.0598 101.276 23.2736C101.158 24.2556 100.326 24.9975 99.3345 25.0062ZM108.632 19.25L106.749 23.9937H106.69L104.74 19.25H102.975L105.902 25.8812L104.234 29.5667H105.942L110.445 19.25H108.632ZM93.8725 26.2499H95.5122V15.3135H93.8725V26.2499Z" fill="white"/>
<path fill-rule="evenodd" clip-rule="evenodd" d="M9.15965 6.592C8.90571 6.86475 8.75903 7.28152 8.75903 7.82703V27.1752C8.75903 27.7207 8.90571 28.1375 9.16841 28.3993L9.23628 28.4583L20.1122 17.6179V17.3757L9.22752 6.53308L9.15965 6.592Z" fill="url(#paint0_linear)"/>
<path fill-rule="evenodd" clip-rule="evenodd" d="M23.7309 21.2422L20.1034 17.6266V17.3735L23.7309 13.7578L23.8097 13.8058L28.1005 16.2366C29.3286 16.9261 29.3286 18.0652 28.1005 18.7634L23.8097 21.1942L23.7309 21.2422Z" fill="url(#paint1_linear)"/>
<path fill-rule="evenodd" clip-rule="evenodd" d="M23.8096 21.1942L20.1033 17.5L9.15955 28.408C9.56017 28.8357 10.2322 28.8837 10.9831 28.467L23.8096 21.1942Z" fill="url(#paint2_linear)"/>
<path fill-rule="evenodd" clip-rule="evenodd" d="M23.8096 13.8058L10.9831 6.54392C10.2322 6.11624 9.55798 6.17515 9.15955 6.60283L20.1033 17.5L23.8096 13.8058Z" fill="url(#paint3_linear)"/>
<path opacity="0.2" fill-rule="evenodd" clip-rule="evenodd" d="M23.7308 21.1157L10.9919 28.3296C10.2804 28.7376 9.64558 28.7092 9.2362 28.3383L9.16833 28.4059L9.2362 28.4648C9.64558 28.8336 10.2804 28.8642 10.9919 28.4561L23.8184 21.1943L23.7308 21.1157Z" fill="black"/>
<path opacity="0.12" fill-rule="evenodd" clip-rule="evenodd" d="M28.1004 18.6368L23.7198 21.1156L23.7987 21.1942L28.0895 18.7634C28.7046 18.4143 29.0067 17.956 29.0067 17.5C28.9695 17.919 28.6565 18.3161 28.1004 18.6368Z" fill="black"/>
<path opacity="0.25" fill-rule="evenodd" clip-rule="evenodd" d="M10.9833 6.6705L28.1005 16.3631C28.6566 16.6752 28.9696 17.0832 29.0178 17.5C29.0178 17.0439 28.7157 16.5857 28.1005 16.2366L10.9833 6.54395C9.75511 5.84351 8.75903 6.4283 8.75903 7.82699V7.95355C8.75903 6.55267 9.75511 5.9788 10.9833 6.6705Z" fill="white"/>
<defs>
<linearGradient id="paint0_linear" x1="19.1366" y1="7.61829" x2="1.72289" y2="12.2734" gradientUnits="userSpaceOnUse">
<stop stop-color="#00A0FF"/>
<stop offset="0.00657" stop-color="#00A1FF"/>
<stop offset="0.2601" stop-color="#00BEFF"/>
<stop offset="0.5122" stop-color="#00D2FF"/>
<stop offset="0.7604" stop-color="#00DFFF"/>
<stop offset="1" stop-color="#00E3FF"/>
</linearGradient>
<linearGradient id="paint1_linear" x1="29.7021" y1="17.5" x2="8.46051" y2="17.5" gradientUnits="userSpaceOnUse">
<stop stop-color="#FFE000"/>
<stop offset="0.4087" stop-color="#FFBD00"/>
<stop offset="0.7754" stop-color="#FFA500"/>
<stop offset="1" stop-color="#FF9C00"/>
</linearGradient>
<linearGradient id="paint2_linear" x1="21.7943" y1="19.5102" x2="7.87601" y2="43.0125" gradientUnits="userSpaceOnUse">
<stop stop-color="#FF3A44"/>
<stop offset="1" stop-color="#C31162"/>
</linearGradient>
<linearGradient id="paint3_linear" x1="6.40379" y1="0.156407" x2="12.6133" y2="10.6529" gradientUnits="userSpaceOnUse">
<stop stop-color="#32A071"/>
<stop offset="0.0685" stop-color="#2DA771"/>
<stop offset="0.4762" stop-color="#15CF74"/>
<stop offset="0.8009" stop-color="#06E775"/>
<stop offset="1" stop-color="#00F076"/>
</linearGradient>
</defs>
</svg>
