<svg width="117" height="34" viewBox="0 0 117 34" fill="none" xmlns="http://www.w3.org/2000/svg">
<path fill-rule="evenodd" clip-rule="evenodd" d="M112.665 34H4.33493C1.94577 34 0 32.0838 0 29.75V4.25C0 1.90773 1.94577 0 4.33493 0H112.665C115.052 0 117 1.90773 117 4.25V29.75C117 32.0838 115.052 34 112.665 34Z" fill="black"/>
<path fill-rule="evenodd" clip-rule="evenodd" d="M112.665 0.680424C114.669 0.680424 116.309 2.28504 116.309 4.25V29.75C116.309 31.715 114.68 33.3196 112.665 33.3196H4.33493C2.33105 33.3196 0.690919 31.715 0.690919 29.75V4.25C0.690919 2.28504 2.32028 0.680424 4.33493 0.680424H112.665ZM112.665 0H4.33493C1.94577 0 0 1.91621 0 4.25V29.75C0 32.0923 1.94577 34 4.33493 34H112.665C115.052 34 117 32.0923 117 29.75V4.25C117 1.91621 115.052 0 112.665 0Z" fill="#A6A6A6"/>
<path d="M61.636 11.2471C60.8547 11.2471 60.196 10.9779 59.6751 10.448C59.1586 9.9329 58.8701 9.2228 58.8831 8.49786C58.8831 7.72417 59.15 7.06919 59.6751 6.54986C60.1939 6.01993 60.8525 5.75073 61.6338 5.75073C62.4065 5.75073 63.0652 6.01993 63.5947 6.54986C64.1198 7.08614 64.3867 7.74113 64.3867 8.49786C64.3781 9.27367 64.1112 9.92866 63.5947 10.4459C63.0759 10.98 62.4173 11.2471 61.636 11.2471ZM38.3879 11.2471C37.6238 11.2471 36.9609 10.9822 36.4185 10.4586C35.8804 9.93714 35.6071 9.27791 35.6071 8.49998C35.6071 7.72205 35.8804 7.06283 36.4185 6.54138C36.9501 6.01781 37.6131 5.75285 38.3879 5.75285C38.7668 5.75285 39.1348 5.82704 39.4878 5.97754C39.8344 6.1238 40.1163 6.32305 40.3251 6.56682L40.3768 6.62829L39.7935 7.19213L39.7332 7.12218C39.4039 6.73639 38.9626 6.54774 38.3793 6.54774C37.8585 6.54774 37.4043 6.73003 37.0298 7.09038C36.6531 7.45285 36.4616 7.92766 36.4616 8.5021C36.4616 9.07654 36.6531 9.55136 37.0298 9.91382C37.4043 10.2742 37.8585 10.4565 38.3793 10.4565C38.9347 10.4565 39.4017 10.2742 39.7655 9.91382C39.9807 9.70185 40.1142 9.4051 40.1615 9.02991H38.2911V8.23714H40.9644L40.9751 8.30921C40.9945 8.44275 41.0139 8.58053 41.0139 8.70771C41.0139 9.43901 40.79 10.0304 40.3466 10.4671C39.843 10.9843 39.1843 11.2471 38.3879 11.2471ZM69.2985 11.1348H68.4741L65.9494 7.15609L65.9709 7.87255V11.1327H65.1465V5.8652H66.0871L66.113 5.90547L68.487 9.6531L68.4655 8.93876V5.8652H69.2985V11.1348ZM55.4414 11.1348H54.6062V6.65796H53.1577V5.8652H56.8878V6.65796H55.4392V11.1348H55.4414ZM52.4775 11.1348H51.6446V5.8652H52.4775V11.1348ZM47.7961 11.1348H46.9631V6.65796H45.5145V5.8652H49.2446V6.65796H47.7961V11.1348ZM44.9872 11.1263H41.793V5.8652H44.9872V6.65796H42.6282V8.1036H44.7569V8.88789H42.6282V10.3335H44.9872V11.1263ZM60.2864 9.90323C60.6588 10.2699 61.1108 10.4543 61.636 10.4543C62.1762 10.4543 62.6175 10.2742 62.9855 9.90323C63.3514 9.54288 63.5365 9.07018 63.5365 8.49998C63.5365 7.92978 63.3514 7.45497 62.9877 7.09674C62.6153 6.73003 62.1612 6.54562 61.6381 6.54562C61.0979 6.54562 60.6566 6.72579 60.2907 7.09674C59.9248 7.45709 59.7397 7.92978 59.7397 8.49998C59.7397 9.07018 59.9227 9.545 60.2864 9.90323Z" fill="white"/>
<path fill-rule="evenodd" clip-rule="evenodd" d="M58.8056 18.4922C56.7716 18.4922 55.1228 20.0121 55.1228 22.1085C55.1228 24.1858 56.7823 25.7247 58.8056 25.7247C60.8396 25.7247 62.4883 24.1942 62.4883 22.1085C62.4883 20.0121 60.8396 18.4922 58.8056 18.4922ZM58.8056 24.2917C57.6928 24.2917 56.735 23.3845 56.735 22.1C56.735 20.7964 57.695 19.9082 58.8056 19.9082C59.9184 19.9082 60.8762 20.7964 60.8762 22.1C60.8784 23.393 59.9184 24.2917 58.8056 24.2917ZM50.7707 18.4922C48.7367 18.4922 47.0879 20.0121 47.0879 22.1085C47.0879 24.1858 48.7474 25.7247 50.7707 25.7247C52.8047 25.7247 54.4534 24.1942 54.4534 22.1085C54.4534 20.0121 52.8026 18.4922 50.7707 18.4922ZM50.7707 24.2917C49.6579 24.2917 48.7001 23.3845 48.7001 22.1C48.7001 20.7964 49.6601 19.9082 50.7707 19.9082C51.8835 19.9082 52.8413 20.7964 52.8413 22.1C52.8413 23.393 51.8835 24.2917 50.7707 24.2917ZM41.2098 19.5966V21.127H44.9399C44.8258 21.9855 44.5374 22.6193 44.0961 23.0538C43.5494 23.5922 42.7057 24.1773 41.2184 24.1773C38.9261 24.1773 37.1331 22.3543 37.1331 20.0969C37.1331 17.8394 38.9261 16.0164 41.2184 16.0164C42.456 16.0164 43.3578 16.4976 44.0272 17.1123L45.1293 16.027C44.1994 15.1495 42.9618 14.4775 41.227 14.4775C38.0823 14.4775 35.4435 17 35.4435 20.0884C35.4435 23.1853 38.0802 25.6992 41.227 25.6992C42.9252 25.6992 44.1994 25.1523 45.2068 24.1222C46.2334 23.1111 46.5585 21.6845 46.5585 20.5335C46.5585 20.1753 46.5305 19.8531 46.4724 19.5797H41.2076C41.2098 19.5775 41.2098 19.5966 41.2098 19.5966ZM80.3167 20.7879C80.0089 19.976 79.079 18.4838 77.172 18.4838C75.2822 18.4838 73.7109 19.9485 73.7109 22.1C73.7109 24.1306 75.265 25.7162 77.3549 25.7162C79.0338 25.7162 80.011 24.7051 80.4135 24.1116L79.1673 23.2891C78.754 23.8932 78.1793 24.2896 77.3636 24.2896C76.5392 24.2896 75.9623 23.9208 75.5792 23.1937L80.4888 21.1906C80.4888 21.1927 80.3167 20.7879 80.3167 20.7879ZM75.3102 21.9961C75.2714 20.5992 76.4122 19.8891 77.228 19.8891C77.8715 19.8891 78.4075 20.2007 78.5904 20.6543L75.3102 21.9961ZM71.3218 25.5H72.9339V14.876H71.3218V25.5ZM68.6743 19.2956H68.6162C68.2525 18.8696 67.5615 18.4838 66.6791 18.4838C64.8474 18.4838 63.1599 20.0714 63.1599 22.1106C63.1599 24.1412 64.8388 25.7098 66.6791 25.7098C67.5508 25.7098 68.2525 25.3219 68.6162 24.8874H68.6743V25.4067C68.6743 26.7866 67.9253 27.5306 66.7178 27.5306C65.7299 27.5306 65.1164 26.8311 64.8667 26.2461L63.4655 26.8227C63.868 27.7765 64.9421 28.9572 66.7157 28.9572C68.6055 28.9572 70.2068 27.8613 70.2068 25.1884V18.7H68.6829V19.2956C68.6851 19.2956 68.6743 19.2956 68.6743 19.2956ZM66.8233 24.2917C65.7105 24.2917 64.7806 23.376 64.7806 22.1106C64.7806 20.8345 65.7105 19.9103 66.8233 19.9103C67.9253 19.9103 68.7798 20.8451 68.7798 22.1106C68.7906 23.376 67.9275 24.2917 66.8233 24.2917ZM87.8651 14.876H84.0102V25.5H85.6223V21.4768H87.8673C89.6516 21.4768 91.4058 20.2028 91.4058 18.1807C91.4058 16.1585 89.6581 14.876 87.8651 14.876ZM87.9125 19.993H85.6202V16.3471H87.9125C89.1199 16.3471 89.8023 17.3285 89.8023 18.1701C89.8023 19.0031 89.1113 19.993 87.9125 19.993ZM97.8673 18.4732C96.6964 18.4732 95.4889 18.984 94.9895 20.0969L96.4187 20.6819C96.7265 20.0969 97.2904 19.8976 97.8867 19.8976C98.7218 19.8976 99.5655 20.3894 99.5849 21.2669V21.3793C99.2965 21.2182 98.6637 20.9723 97.906 20.9723C96.3628 20.9723 94.798 21.8032 94.798 23.3612C94.798 24.7878 96.0636 25.7035 97.4734 25.7035C98.5561 25.7035 99.1523 25.2223 99.5246 24.6648H99.5828V25.4873H101.137V21.4174C101.137 19.5224 99.7076 18.4732 97.8673 18.4732ZM97.665 24.2917C97.1376 24.2917 96.3994 24.0374 96.3994 23.3845C96.3994 22.5621 97.3206 22.2505 98.1062 22.2505C98.8165 22.2505 99.1523 22.401 99.5742 22.6087C99.4579 23.5626 98.64 24.2833 97.665 24.2917ZM106.806 18.7L104.955 23.3082H104.897L102.979 18.7H101.244L104.122 25.1417L102.482 28.7219H104.161L108.588 18.7H106.806ZM92.2947 25.5H93.9069V14.876H92.2947V25.5Z" fill="white"/>
<path fill-rule="evenodd" clip-rule="evenodd" d="M9.0057 6.40367C8.75603 6.66863 8.61182 7.07349 8.61182 7.60342V26.3988C8.61182 26.9287 8.75603 27.3336 9.01431 27.5879L9.08104 27.6452L19.7742 17.1145V16.8792L9.07243 6.34644L9.0057 6.40367Z" fill="url(#paint0_linear)"/>
<path fill-rule="evenodd" clip-rule="evenodd" d="M23.332 20.6352L19.7655 17.1228V16.877L23.332 13.3646L23.4095 13.4113L27.6282 15.7726C28.8357 16.4424 28.8357 17.5489 27.6282 18.2272L23.4095 20.5886L23.332 20.6352Z" fill="url(#paint1_linear)"/>
<path fill-rule="evenodd" clip-rule="evenodd" d="M23.4095 20.5887L19.7654 17L9.00562 27.5964C9.3995 28.0118 10.0603 28.0585 10.7986 27.6536L23.4095 20.5887Z" fill="url(#paint2_linear)"/>
<path fill-rule="evenodd" clip-rule="evenodd" d="M23.4095 13.4113L10.7986 6.35696C10.0603 5.9415 9.39735 5.99873 9.00562 6.4142L19.7654 17L23.4095 13.4113Z" fill="url(#paint3_linear)"/>
<path opacity="0.2" fill-rule="evenodd" clip-rule="evenodd" d="M23.332 20.5123L10.8072 27.5201C10.1077 27.9164 9.48351 27.8889 9.08101 27.5285L9.01428 27.5942L9.08101 27.6515C9.48351 28.0097 10.1077 28.0394 10.8072 27.643L23.4181 20.5886L23.332 20.5123Z" fill="black"/>
<path opacity="0.12" fill-rule="evenodd" clip-rule="evenodd" d="M27.6282 18.1044L23.3213 20.5123L23.3988 20.5887L27.6175 18.2273C28.2223 17.8882 28.5193 17.443 28.5193 17C28.4827 17.407 28.175 17.7928 27.6282 18.1044Z" fill="black"/>
<path opacity="0.25" fill-rule="evenodd" clip-rule="evenodd" d="M10.7987 6.47995L27.6282 15.8957C28.175 16.1988 28.4827 16.5952 28.5301 17C28.5301 16.557 28.2331 16.1119 27.6282 15.7727L10.7987 6.357C9.59116 5.67658 8.61182 6.24466 8.61182 7.60339V7.72633C8.61182 6.36548 9.59116 5.808 10.7987 6.47995Z" fill="white"/>
<defs>
<linearGradient id="paint0_linear" x1="18.815" y1="7.40063" x2="1.72171" y2="12.0254" gradientUnits="userSpaceOnUse">
<stop stop-color="#00A0FF"/>
<stop offset="0.00657" stop-color="#00A1FF"/>
<stop offset="0.2601" stop-color="#00BEFF"/>
<stop offset="0.5122" stop-color="#00D2FF"/>
<stop offset="0.7604" stop-color="#00DFFF"/>
<stop offset="1" stop-color="#00E3FF"/>
</linearGradient>
<linearGradient id="paint1_linear" x1="29.2029" y1="16.9999" x2="8.3183" y2="16.9999" gradientUnits="userSpaceOnUse">
<stop stop-color="#FFE000"/>
<stop offset="0.4087" stop-color="#FFBD00"/>
<stop offset="0.7754" stop-color="#FFA500"/>
<stop offset="1" stop-color="#FF9C00"/>
</linearGradient>
<linearGradient id="paint2_linear" x1="21.428" y1="18.9527" x2="7.98615" y2="41.9254" gradientUnits="userSpaceOnUse">
<stop stop-color="#FF3A44"/>
<stop offset="1" stop-color="#C31162"/>
</linearGradient>
<linearGradient id="paint3_linear" x1="6.29617" y1="0.151953" x2="12.293" y2="10.4118" gradientUnits="userSpaceOnUse">
<stop stop-color="#32A071"/>
<stop offset="0.0685" stop-color="#2DA771"/>
<stop offset="0.4762" stop-color="#15CF74"/>
<stop offset="0.8009" stop-color="#06E775"/>
<stop offset="1" stop-color="#00F076"/>
</linearGradient>
</defs>
</svg>
