<svg width="66" height="14" viewBox="0 0 66 14" fill="none" xmlns="http://www.w3.org/2000/svg">
<path d="M3.10986 0.15332H6.09432V0.92631H5.10349V11.8815H4.21476V0.92631H3.10986V0.15332Z" fill="#A7A7A7"/>
<path d="M10.3482 1.76587C10.3642 1.76587 10.3722 1.83695 10.3722 1.97911C10.3722 2.12127 10.3703 2.26343 10.3663 2.40559V2.61216C10.05 2.61216 9.76975 2.68324 9.52555 2.8254C9.28535 2.96312 9.04919 3.21412 8.817 3.5784V11.8814H7.92224V1.88582H8.817V2.99866C8.92107 2.60772 9.10323 2.30563 9.36343 2.09239C9.62764 1.87471 9.95591 1.76587 10.3482 1.76587Z" fill="#A7A7A7"/>
<path d="M12.2543 1.88576H13.155V11.8813H12.2543V1.88576ZM12.2543 0.0065918H13.149V0.966163H12.2543V0.0065918Z" fill="#A7A7A7"/>
<path d="M18.3216 4.81116C18.3216 4.02928 18.2916 3.54284 18.2315 3.35182C18.1755 3.15635 18.1075 2.98975 18.0274 2.85204C17.9473 2.71432 17.8152 2.64546 17.6311 2.64546C17.4469 2.64546 17.3108 2.65879 17.2227 2.68544C17.0065 2.75208 16.8484 2.94533 16.7483 3.26519C16.6482 3.5806 16.5982 4.10036 16.5982 4.82448V8.79604C16.5982 9.64456 16.6583 10.2443 16.7783 10.5952C16.9025 10.9418 17.1347 11.115 17.4749 11.115C17.8152 11.115 18.0414 10.9418 18.1535 10.5952C18.2656 10.2487 18.3216 9.63788 18.3216 8.76272V4.81116ZM16.5982 2.65213C16.8104 2.09238 17.2087 1.8125 17.7932 1.8125C18.2015 1.8125 18.5078 1.96354 18.7119 2.26563C18.9201 2.56328 19.0562 2.94977 19.1203 3.42512C19.1843 3.89602 19.2164 4.46464 19.2164 5.131V8.71608C19.2164 8.7294 19.2164 8.74496 19.2164 8.76272C19.2164 10.02 19.0683 10.8751 18.772 11.3282C18.4757 11.777 18.0714 12.0013 17.559 12.0013C17.3549 12.0013 17.1627 11.9213 16.9825 11.7614C16.8064 11.597 16.6783 11.3971 16.5982 11.1617V13.6472H15.7035V1.8858H16.5982V2.65213Z" fill="#A7A7A7"/>
<path d="M25.178 2.0057L25.184 2.27891C25.184 2.7587 25.4082 3.61165 25.8566 4.83775C26.1648 4.41127 26.401 3.99371 26.5652 3.585C26.7333 3.17185 26.8174 2.71205 26.8174 2.20561C26.8174 1.69917 26.7673 1.33933 26.6672 1.12609C26.5671 0.908411 26.3309 0.799571 25.9587 0.799571C25.4743 0.799571 25.2181 1.10832 25.19 1.72583C25.186 1.82356 25.182 1.88797 25.178 1.91907C25.178 1.94573 25.178 1.9746 25.178 2.0057ZM27.7601 9.44903C28.3286 10.7729 28.6729 11.5836 28.793 11.8813H28.0484C27.9443 11.6059 27.7321 11.1039 27.4119 10.3753C27.2117 10.8773 27.0055 11.2371 26.7934 11.4548C26.5812 11.6725 26.369 11.8191 26.1568 11.8946C25.9486 11.9746 25.7084 12.0146 25.4362 12.0146C24.8918 12.0146 24.4514 11.8058 24.1151 11.3882C23.7789 10.9706 23.6107 10.3975 23.6107 9.66895C23.6107 8.94039 23.6768 8.40063 23.8089 8.04967C23.945 7.69871 24.0731 7.38995 24.1932 7.12339C24.3133 6.85687 24.6856 6.33267 25.3101 5.55079C24.6416 3.88931 24.3073 2.79424 24.3073 2.26559C24.3073 0.759591 24.8798 0.0065918 26.0247 0.0065918C26.6932 0.0065918 27.1316 0.20206 27.3398 0.592995C27.5519 0.983935 27.658 1.53036 27.658 2.23227C27.658 2.93418 27.518 3.54724 27.2377 4.07143C26.9615 4.59119 26.6132 5.13983 26.1928 5.71735C26.4771 6.44595 26.8594 7.36107 27.3398 8.46283C27.6641 7.70759 28.0203 7.07675 28.4087 6.57031L28.823 7.28335C28.4627 7.78091 28.1084 8.50279 27.7601 9.44903ZM26.9675 9.37575C26.383 8.06967 25.9526 7.09011 25.6764 6.43703C25.3402 6.93459 25.0639 7.43883 24.8477 7.94971C24.6316 8.46059 24.5215 9.04479 24.5175 9.70227C24.5175 10.6885 24.8598 11.1816 25.5443 11.1816C25.9206 11.1816 26.2369 10.9373 26.4931 10.4486C26.6212 10.1954 26.7793 9.83775 26.9675 9.37575Z" fill="#A7A7A7"/>
<path d="M37.2408 0.15332H38.2436V11.8815H37.433V6.85702L37.5711 2.13244L36.0639 11.6282H35.2111L33.6499 2.13244L33.788 6.85702V11.8815H32.9713V0.15332H33.9741L35.6375 10.0023L37.2408 0.15332Z" fill="#A7A7A7"/>
<path d="M40.7921 1.88576H41.693V11.8813H40.7921V1.88576ZM40.7921 0.0065918H41.6868V0.966163H40.7921V0.0065918Z" fill="#A7A7A7"/>
<path d="M45.1362 2.86545C45.2162 2.56781 45.3923 2.31015 45.6646 2.09247C45.941 1.87034 46.2652 1.75928 46.6373 1.75928C47.0097 1.75928 47.3158 1.93031 47.5563 2.27239C47.7964 2.61445 47.9164 3.12756 47.9164 3.8117V11.8815H47.0217V3.73174C47.0217 3.34524 46.9417 3.06758 46.7816 2.89877C46.6253 2.72552 46.4153 2.63889 46.1509 2.63889C45.4744 2.63889 45.1362 3.00983 45.1362 3.75173V11.8815H44.2415V1.88589H45.1362V2.86545Z" fill="#A7A7A7"/>
<path d="M52.8367 4.97112C52.8367 4.11372 52.7769 3.51399 52.6568 3.17192C52.5405 2.82541 52.3124 2.65216 51.9721 2.65216C51.6318 2.65216 51.4037 2.82985 51.2877 3.18525C51.1714 3.5362 51.1133 4.14704 51.1133 5.01776V8.976C51.1133 9.89116 51.1776 10.4776 51.3055 10.7352C51.4375 10.9929 51.6318 11.1217 51.8879 11.1217C52.1441 11.1217 52.3264 11.0706 52.4345 10.9684C52.5467 10.8618 52.6407 10.6864 52.7166 10.442C52.7967 10.1932 52.8367 9.709 52.8367 8.98932V4.97112ZM52.8309 0H53.7314V11.8814H52.8309V11.1217C52.6226 11.677 52.2241 11.9547 51.6359 11.9547C50.9672 11.9502 50.5428 11.5082 50.3629 10.6286C50.2627 10.1444 50.2128 9.49356 50.2128 8.67616V5.16436C50.2128 3.82274 50.3567 2.92092 50.6451 2.45891C50.9371 1.99689 51.3476 1.76588 51.876 1.76588C52.0802 1.76588 52.2683 1.84807 52.4407 2.01244C52.6168 2.17237 52.7468 2.36784 52.8309 2.59884V0Z" fill="#A7A7A7"/>
<path fill-rule="evenodd" clip-rule="evenodd" d="M63.2709 3.20575L65.88 6.10075C66.04 6.27843 66.04 6.56647 65.88 6.74411L63.2709 9.63915C63.1108 9.81679 62.8514 9.81679 62.6913 9.63915C62.5313 9.46147 62.5313 9.17343 62.6913 8.99579L64.6004 6.87735H57.3911V5.96755H64.6004L62.6913 3.84909C62.5313 3.67144 62.5313 3.3834 62.6913 3.20575C62.8514 3.0281 63.1108 3.0281 63.2709 3.20575Z" fill="#EFC224"/>
<path d="M1.63975 5.96753H0V6.87737H1.63975V5.96753Z" fill="#EFC224"/>
</svg>
