<?xml version="1.0" standalone="no"?>
<!DOCTYPE svg PUBLIC "-//W3C//DTD SVG 20010904//EN"
 "http://www.w3.org/TR/2001/REC-SVG-20010904/DTD/svg10.dtd">
<svg version="1.0" xmlns="http://www.w3.org/2000/svg"
 width="837.000000pt" height="689.000000pt" viewBox="0 0 837.000000 689.000000"
 preserveAspectRatio="xMidYMid meet">
<metadata>
Created by potrace 1.16, written by Peter Selinger 2001-2019
</metadata>
<g transform="translate(0.000000,689.000000) scale(0.100000,-0.100000)"
fill="#000000" stroke="none">
<path d="M3689 6886 c-2 -2 -58 -9 -124 -15 -282 -27 -526 -98 -827 -241 -311
-146 -472 -254 -658 -440 -204 -203 -332 -403 -474 -743 -35 -83 -78 -183 -94
-222 -37 -86 -73 -216 -111 -405 -16 -80 -41 -192 -55 -250 -35 -140 -51 -416
-51 -845 0 -359 9 -487 56 -800 76 -502 213 -949 436 -1426 143 -303 334 -576
539 -768 93 -87 295 -228 434 -303 151 -82 419 -194 640 -266 339 -111 427
-123 975 -129 400 -4 414 -4 585 21 333 49 530 117 687 238 91 69 346 355 456
511 92 130 140 211 246 422 253 500 407 923 646 1777 108 389 136 573 136 903
1 210 -14 384 -46 553 -37 195 -131 476 -215 642 -100 199 -347 510 -710 895
-449 476 -743 654 -1309 795 -360 89 -452 100 -839 100 -175 0 -321 -2 -323
-4z m631 -151 c206 -34 540 -125 740 -202 242 -93 464 -226 685 -408 133 -110
221 -203 406 -425 331 -397 403 -515 569 -930 184 -461 246 -792 221 -1175
-15 -232 -22 -261 -233 -995 -43 -151 -96 -284 -221 -550 -60 -129 -165 -361
-234 -515 -132 -297 -199 -430 -266 -529 -67 -101 -288 -387 -342 -445 -165
-177 -425 -293 -850 -381 -321 -67 -642 -48 -1034 61 -183 51 -542 169 -641
211 -365 155 -705 466 -1020 934 -117 173 -221 401 -321 704 -93 281 -155 548
-230 980 l-42 245 -1 405 c-1 268 3 444 12 520 17 157 48 344 76 470 14 58 32
152 41 210 20 134 88 337 159 479 223 446 521 787 866 992 141 83 419 198 578
238 100 26 555 110 652 121 99 11 311 4 430 -15z"/>
<path d="M4300 6484 c-183 -25 -350 -71 -553 -150 l-49 -19 7 -45 c10 -69 16
-90 27 -90 6 0 103 21 217 46 312 69 483 87 970 104 139 5 255 11 257 13 2 2
-5 16 -16 30 -29 36 -110 73 -215 98 -122 28 -488 36 -645 13z"/>
<path d="M4405 6184 c-96 -15 -289 -67 -309 -85 -5 -4 -1 -29 8 -55 9 -26 16
-60 16 -75 0 -15 -27 -82 -59 -149 -124 -255 -122 -394 6 -587 86 -130 294
-312 431 -376 141 -66 324 -52 502 38 97 49 263 168 335 240 125 124 158 245
119 433 -57 278 -299 479 -703 583 -113 29 -270 44 -346 33z m280 -165 c314
-38 496 -147 595 -354 68 -142 76 -256 24 -363 -29 -58 -168 -211 -244 -267
-187 -137 -388 -151 -599 -40 -247 130 -401 406 -361 648 14 89 94 251 163
329 l51 58 141 0 c77 0 181 -5 230 -11z"/>
<path d="M4600 5598 c-33 -73 -30 -130 8 -177 34 -43 70 -62 127 -69 36 -4 47
0 79 28 46 41 75 97 83 159 l5 48 -58 29 c-47 23 -76 30 -140 32 l-81 4 -23
-54z"/>
<path d="M2359 5769 c-273 -188 -445 -383 -524 -592 -34 -92 -34 -102 6 -82
47 25 617 597 624 628 9 36 -3 97 -19 97 -7 0 -46 -23 -87 -51z"/>
<path d="M2337 5269 c-62 -18 -130 -99 -83 -99 52 0 272 -23 279 -29 4 -4 -36
-13 -88 -20 -187 -24 -319 -75 -414 -158 -41 -36 -62 -67 -106 -156 -87 -177
-107 -325 -57 -423 34 -67 169 -185 264 -232 136 -67 186 -77 398 -76 155 0
202 3 290 22 159 35 191 53 300 170 51 56 97 102 101 102 13 0 89 -128 192
-325 143 -275 120 -247 197 -243 83 5 162 41 230 104 54 51 65 78 28 70 -41
-9 -238 -29 -241 -25 -2 2 -34 72 -72 154 -297 651 -371 775 -563 940 -173
150 -341 225 -517 231 -55 2 -117 -2 -138 -7z m573 -294 c65 -45 146 -142 187
-225 32 -64 38 -85 38 -140 -1 -54 -7 -78 -37 -141 -45 -92 -109 -166 -175
-201 -26 -14 -88 -36 -138 -49 -78 -20 -113 -23 -265 -23 -146 0 -188 4 -252
22 -151 41 -254 116 -307 224 -41 81 -40 127 4 233 76 184 129 239 274 285
136 43 189 49 422 47 l206 -2 43 -30z"/>
<path d="M2506 4757 c-73 -41 -69 -124 9 -202 72 -73 138 -70 185 8 26 41 25
88 0 138 -39 76 -119 99 -194 56z"/>
<path d="M5399 4953 c-13 -16 -77 -92 -142 -170 -140 -169 -198 -223 -293
-269 -84 -40 -133 -43 -219 -14 -76 26 -116 50 -255 154 -111 83 -207 142
-215 134 -3 -2 25 -41 61 -86 102 -128 247 -246 394 -323 60 -32 72 -34 160
-34 85 0 101 3 153 29 38 20 85 58 138 113 119 124 199 258 240 401 29 101 23
116 -22 65z"/>
<path d="M4469 4313 c6 -12 40 -48 77 -82 51 -46 99 -76 208 -130 166 -82 197
-91 296 -91 126 1 268 65 354 161 63 68 53 69 -149 1 -100 -34 -120 -37 -215
-36 -101 0 -109 2 -195 41 -221 99 -325 144 -355 150 -30 6 -32 5 -21 -14z"/>
<path d="M2802 3984 c-62 -18 -152 -40 -200 -49 -110 -19 -305 -34 -354 -28
-47 6 -48 -5 -6 -48 55 -54 111 -74 208 -73 96 1 175 25 312 96 75 39 168 110
168 129 0 12 4 12 -128 -27z"/>
<path d="M6325 3921 c-109 -29 -364 -115 -545 -186 -52 -20 -203 -80 -335
-132 -699 -276 -1372 -508 -1955 -674 -426 -121 -856 -224 -1145 -274 -286
-49 -475 -87 -475 -97 0 -16 237 -480 288 -563 75 -123 303 -435 442 -606 262
-322 460 -484 823 -673 l122 -64 255 -42 c228 -38 268 -42 380 -38 138 5 267
36 438 104 315 127 657 393 960 748 123 144 162 202 237 359 97 201 145 350
259 802 36 143 84 321 107 395 23 74 49 158 57 185 10 36 16 128 21 323 l6
274 40 31 c58 46 155 139 155 149 0 12 -14 10 -135 -21z m-230 -656 c-30 -205
-88 -335 -204 -453 -81 -83 -143 -125 -220 -150 -36 -11 -67 -30 -90 -54 -56
-58 -338 -231 -541 -332 -416 -207 -1099 -440 -1480 -505 -349 -59 -668 -59
-950 1 -245 52 -361 185 -494 568 -31 88 -43 136 -36 140 6 4 68 19 138 35
1123 247 2162 552 3137 920 121 46 243 93 270 105 28 12 147 60 265 106 l215
83 3 -177 c2 -123 -2 -210 -13 -287z m-135 -629 c0 -20 -34 -157 -55 -226 -41
-129 -95 -250 -236 -530 -99 -196 -147 -279 -208 -360 -255 -338 -804 -729
-1126 -801 -96 -22 -496 -19 -605 4 -154 33 -195 57 -461 262 -243 187 -343
272 -455 387 -82 84 -105 114 -123 161 -11 32 -21 67 -21 79 l0 21 293 -6
c504 -11 590 4 1162 196 700 236 851 301 1257 544 190 114 265 152 523 263 22
9 55 13 55 6z"/>
<path d="M1971 3690 c33 -61 117 -142 173 -168 76 -36 139 -45 280 -39 91 3
152 12 201 26 85 25 199 80 240 115 27 22 28 25 10 27 -43 3 -95 -3 -245 -28
-230 -37 -294 -32 -478 41 -78 31 -157 59 -174 63 l-31 6 24 -43z"/>
</g>
</svg>
