<?xml version="1.0" encoding="utf-8"?>
<!-- Generator: Adobe Illustrator 19.2.1, SVG Export Plug-In . SVG Version: 6.00 Build 0)  -->
<svg version="1.1" id="layer" xmlns="http://www.w3.org/2000/svg" xmlns:xlink="http://www.w3.org/1999/xlink" x="0px" y="0px"
	 viewBox="0 0 652 652" style="enable-background:new 0 0 652 652;" xml:space="preserve">
<style type="text/css">
	.st0{fill:#D8505C;}
	.st1{fill:#030000;}
</style>
<path class="st0" d="M-116.7,557.5L282.8,71.6l62.3,79.5l35.6-43.3l240.1,301.4c3,4.7-4.1,5.2-7.4,2
	c-153.1-119.6-329.5-126.6-472.6-61c-110,50.5-171.1,126-251.5,211.7C-112.7,564.1-120.3,562.6-116.7,557.5"/>
<path class="st1" d="M606.4,460v30.2h34c9.2,1.2,17.6-6.8,17.2-15.9c-0.5-8.4-7.7-14.8-15.9-14.3H606.4z M546.9,566.6V424.3h125.4
	c48.7,1.1,45.7,43.6,45.7,43.6c-1.1,23.5-26.5,33.3-26.5,33.3l52.2,65.5h-66.7l-32.8-41.8h-37.9v41.8H546.9z"/>
<path class="st1" d="M507.4,427.9c-20.4-5-46.7-9.5-66.4-10c-49.4-1.1-96.1,12.2-96.1,46.4c0,54,101.7,34.1,95.8,61.7
	c-1.5,7-15.8,10.3-32.3,9.3c-24.7-1.4-44.2-9.3-60.3-14.9v38.1c23.3,6.1,46,11.1,73,12.7c43.5,2.6,92.5-11.2,92.5-47.5
	c0-55.2-91.3-41.5-91.3-60.1c0-9.2,15.3-11.6,26.5-11.6c19.9,0,40.2,6.4,58.7,12.7V427.9z"/>
<polygon class="st1" points="55.5,566.7 132,424.2 192.2,424.2 204.4,485 245.1,424.2 311.5,424.2 311.4,566.8 253.5,566.8 
	253.5,501 207.6,566.6 163.3,566.6 150.4,501 115.2,566.6 "/>
<path class="st1" d="M740.7,441.4v-4h3.8c1.6,0,3.8,0,3.8,1.8s-1.1,2.2-3,2.2H740.7z M747.2,444.4c3-0.2,4.5-1.9,4.5-4.9
	c0-4.4-2.6-5.1-6.5-5.1h-8.1V451h3.5v-6.6h2.9l3.9,6.6h3.8L747.2,444.4z M743.9,430.2c6.9,0,12.4,5.4,12.4,12.6
	c0,7.2-5.6,12.6-12.4,12.6c-6.9,0-12.4-5.4-12.4-12.6C731.4,435.6,737,430.2,743.9,430.2 M743.9,458.8c8.9,0,15.9-7.1,15.9-16
	c0-8.9-7-16-15.9-16c-8.9,0-15.9,7.1-15.9,16C728,451.7,735,458.8,743.9,458.8"/>
</svg>
