<svg width="36" height="22" viewBox="0 0 36 22" fill="none" xmlns="http://www.w3.org/2000/svg">
<path d="M34.781 22H1.21897C0.548565 22 0 21.4694 0 20.821V1.17903C0 0.53059 0.548565 0 1.21897 0H34.781C35.4514 0 36 0.53059 36 1.17903V20.821C36 21.4694 35.4514 22 34.781 22Z" fill="#007DC3"/>
<path d="M4.76553 7.78658L4.14716 6.30961L3.52879 7.78644H4.76553V7.78658ZM18.4543 7.21052C18.3128 7.27097 18.158 7.29634 18.0039 7.28442H16.8969V6.45741H18.0191C18.165 6.44756 18.3112 6.4703 18.4467 6.52382C18.5717 6.58551 18.6468 6.7132 18.6376 6.8488C18.6459 6.99188 18.5727 7.12775 18.4467 7.20331L18.4543 7.21052ZM26.3255 7.78658L25.6918 6.30975L25.0735 7.78658H26.3255ZM11.6519 9.36685H10.7205V6.49428L9.40733 9.36685H8.6439L7.31542 6.48694V9.36685H5.43737L5.08618 8.54718H3.20039L2.84921 9.36685H1.89499L3.52105 5.67462H4.87232L6.39918 9.15264V5.69681H7.88032L9.07134 8.19267L10.163 5.69681H11.6899L11.6519 9.36685ZM15.3623 9.36685H12.3084V5.67462H15.3623V6.41304H13.2398V7.0777H15.3088V7.81611H13.2398V8.55453H15.3623V9.36685ZM19.6453 6.68631C19.6628 7.11638 19.4049 7.51262 18.9964 7.68316C19.173 7.74499 19.3287 7.85216 19.4468 7.9933C19.5732 8.19475 19.6269 8.43114 19.5994 8.66531V9.40373H18.6909V8.93858C18.7358 8.68361 18.6842 8.42143 18.5459 8.20016C18.4161 8.0672 18.2099 8.04515 17.8816 8.04515H16.8967V9.38168H15.9882V5.68932H18.0724C18.4487 5.65369 18.8278 5.71483 19.1718 5.86651C19.48 6.02387 19.6628 6.34261 19.6376 6.67882L19.6453 6.68631ZM21.0882 9.35936H20.1567V5.66727H21.0882V9.35936ZM31.83 9.35936H30.5474L28.822 6.60492V9.35936H26.9744L26.6233 8.5397H24.7375L24.4015 9.35936H23.3326C22.4558 9.47887 21.6449 8.88825 21.5213 8.04016C21.4977 7.8774 21.5008 7.71199 21.5308 7.5502C21.4884 7.02862 21.6644 6.51245 22.0194 6.11759C22.4004 5.79857 22.8996 5.64384 23.4013 5.68932H24.2792V6.4721H23.4242C23.1679 6.4434 22.9115 6.52437 22.7218 6.69365C22.5332 6.93198 22.4409 7.22868 22.4622 7.52815C22.4247 7.8462 22.5148 8.16605 22.7142 8.42171C22.8885 8.56299 23.1136 8.63203 23.3402 8.61373H23.7448L25.0275 5.72648H26.3865L27.9133 9.19715V5.72634H29.2951L30.906 8.25173V5.69681H31.8374L31.83 9.35936ZM1.84912 10.0979H3.37599L3.72717 9.27825H4.4906L4.84179 10.0979H7.89566V9.47027L8.17044 10.0979H9.75077L10.018 9.46279V10.0979H17.6067V8.74655H17.7518C17.851 8.74655 17.8815 8.74655 17.8815 8.92374V10.0831H21.8056V9.77293C22.2554 9.99019 22.7536 10.0968 23.2562 10.0831H24.951L25.3022 9.26342H26.0657L26.4093 10.0831H29.5855V9.31513L30.0664 10.0904H32.6087V4.96574H30.1427V5.57119L29.7915 4.96574H27.1806V5.57119L26.8599 4.96574H23.3633C22.8368 4.93856 22.3116 5.04019 21.8364 5.26105V4.96574H19.4544V5.26105C19.1612 5.0467 18.798 4.94189 18.4313 4.96574H9.59826L9.00282 6.28757L8.39965 4.96574H5.6283V5.57119L5.31524 4.96574H2.94854L1.84912 7.39519V10.0979Z" fill="white"/>
<path d="M34.1509 12.8004H32.4866C32.3603 12.786 32.2325 12.8093 32.1201 12.8669C32.0282 12.9251 31.9757 13.0266 31.9826 13.1326C31.9819 13.2553 32.0616 13.365 32.1811 13.4059C32.2954 13.437 32.4136 13.4519 32.5323 13.4503H33.0286C33.3985 13.4174 33.7675 13.5232 34.0592 13.7456C34.0906 13.7747 34.1187 13.8069 34.1432 13.8415L34.1509 12.8004ZM34.1509 15.2226C33.8452 15.5686 33.3819 15.7457 32.9142 15.6952H31.1583V14.8977H32.9066C33.0359 14.9138 33.1667 14.882 33.2731 14.8091C33.3456 14.7476 33.3875 14.6588 33.3876 14.5654C33.3906 14.4714 33.3484 14.3813 33.2731 14.3217C33.1807 14.2624 33.0707 14.234 32.9601 14.2404C32.105 14.2404 31.0437 14.2404 31.0437 13.1032C31.0368 12.4997 31.537 12.005 32.1611 11.9983C32.2216 11.9976 32.2819 12.0016 32.3417 12.0103H34.1511V11.2719H32.4333C32.0303 11.2521 31.6314 11.3581 31.2957 11.5747V11.2719H28.845C28.4587 11.2519 28.0767 11.3586 27.7609 11.5747V11.2719H23.3253V11.5747C22.9539 11.3688 22.5317 11.2641 22.1037 11.2719H19.1721V11.5747C18.7987 11.3548 18.3634 11.2542 17.9276 11.2867H14.6142L13.8507 12.0695L13.1484 11.2867H8.26978V16.4116H13.072L13.8354 15.6141L14.5988 16.4116H17.5611V15.2079H17.8512C18.2691 15.2403 18.6893 15.1926 19.088 15.0676V16.4484H21.5311V15.0676H21.6532C21.8059 15.0676 21.8212 15.0676 21.8212 15.2152V16.4041H29.2267C29.6645 16.4185 30.0962 16.3025 30.4635 16.0718V16.4041H32.815C33.2727 16.4195 33.7285 16.3388 34.1511 16.1678V15.2226H34.1509ZM30.5245 13.7457C30.7152 13.9461 30.8142 14.2123 30.7993 14.4841C30.7993 15.2743 30.2878 15.6435 29.3793 15.6435H27.6004V14.8977H29.3793C29.511 14.9128 29.6437 14.8814 29.7534 14.8091C29.8216 14.7452 29.8602 14.6573 29.8603 14.5654C29.8612 14.4718 29.8192 14.3827 29.7458 14.3217C29.6505 14.2624 29.5382 14.2339 29.4251 14.2404C28.5777 14.2404 27.5166 14.2404 27.5166 13.1032C27.5166 12.5715 27.8601 12.0103 28.8144 12.0103H30.6313V12.7931H28.9517C28.8361 12.7823 28.7199 12.8028 28.6157 12.8522C28.5211 12.9082 28.4678 13.0113 28.4782 13.1179C28.4751 13.2413 28.5556 13.3523 28.6767 13.3912C28.7908 13.4228 28.9092 13.4378 29.0279 13.4356H29.5242C29.894 13.4042 30.2624 13.5098 30.5548 13.7309L30.5245 13.7457ZM22.3632 13.502C22.2226 13.5653 22.067 13.5909 21.9128 13.5759H20.7828V12.7784H21.8975C22.046 12.7654 22.1955 12.7882 22.3326 12.8448C22.4589 12.909 22.5339 13.0395 22.5236 13.1771C22.5319 13.3202 22.4586 13.4561 22.3326 13.5317L22.3632 13.502ZM22.8823 13.9893C23.0565 14.0516 23.2096 14.1589 23.3251 14.2995C23.4527 14.5005 23.5065 14.7372 23.4778 14.9715V15.7099H22.5693V15.2521C22.6134 14.9971 22.562 14.7352 22.4242 14.5137C22.2945 14.3807 22.096 14.3512 21.76 14.3512H20.7827V15.6952H19.8742V12.003H21.9661C22.3397 11.9711 22.7155 12.0321 23.0578 12.1802C23.3645 12.3389 23.5467 12.6567 23.5235 12.9925C23.537 13.4139 23.2827 13.8006 22.8822 13.9673L22.8823 13.9893ZM24.0351 12.0178H27.089V12.7562H24.9284V13.4209H27.005V14.1593H24.9284V14.8977H27.089V15.6361H24.0351V12.0178ZM17.9275 13.7162H16.7289V12.7784H17.9275C18.2557 12.7784 18.4848 12.9039 18.4848 13.2289C18.4848 13.5538 18.2633 13.7162 17.9199 13.7162H17.9275ZM15.8356 15.3629L14.446 13.886L15.8356 12.4092V15.3629ZM12.2397 14.9272H9.99517V14.1888H11.9877V13.4504H9.99517V12.7858H12.2855L13.2704 13.8565L12.2397 14.9272ZM19.4544 13.2214C19.4544 14.2404 18.6909 14.4546 17.874 14.4546H16.7289V15.6878H14.9654L13.8507 14.4768L12.6903 15.6952H9.09427V12.003H12.7436L13.8658 13.2067L15.0187 12.003H17.9275C18.6528 12.003 19.4544 12.195 19.4544 13.214" fill="white"/>
</svg>
