<svg width="35" height="23" viewBox="0 0 35 23" fill="none" xmlns="http://www.w3.org/2000/svg">
<g clip-path="url(#clip0)">
<path d="M31.8871 -0.00135186H2.48934C2.26641 -0.00365839 2.04377 0.0158016 1.82443 0.0567657C1.60622 0.0918719 1.3956 0.165613 1.20195 0.274706C0.993504 0.37124 0.805924 0.509552 0.650214 0.681529C0.494901 0.843354 0.365931 1.02977 0.268242 1.23365C0.17031 1.43618 0.0989526 1.65115 0.0560346 1.87294C0.0277404 2.09088 0.0135932 2.30882 -0.000553894 2.54129V20.456C-0.00279975 20.685 0.0161483 20.9136 0.0560346 21.1389C0.0902173 21.363 0.162019 21.5793 0.268242 21.7782C0.462527 22.1903 0.786522 22.5231 1.18781 22.7226C1.38501 22.8232 1.59432 22.8965 1.81028 22.9405C2.02954 22.9821 2.25224 23.0016 2.47519 22.9987H32.5237C32.7466 23.001 32.9693 22.9815 33.1886 22.9405C33.4068 22.9054 33.6174 22.8317 33.8111 22.7226C34.2124 22.5231 34.5364 22.1903 34.7307 21.7782C34.8286 21.5757 34.8999 21.3607 34.9429 21.1389C34.9834 20.9137 35.0023 20.685 34.9995 20.456V2.55582C35.0017 2.32686 34.9827 2.09821 34.9429 1.87294C34.9087 1.64883 34.8369 1.43253 34.7307 1.23365C34.5364 0.82152 34.2124 0.488771 33.8111 0.289236C33.6139 0.188658 33.4046 0.115373 33.1886 0.071295C32.9694 0.0297132 32.7467 0.0102481 32.5237 0.0131775H32.2266C32.1138 0.00108748 32.0004 -0.00376508 31.8871 -0.00135186Z" fill="#231F20"/>
<path d="M31.8876 0.77002H32.5242C32.7089 0.770633 32.8933 0.785202 33.076 0.813608C33.2242 0.837715 33.3676 0.886807 33.5004 0.958901C33.6279 1.02445 33.7429 1.11304 33.8399 1.22043C33.9402 1.32389 34.0259 1.44127 34.0945 1.56914C34.1668 1.70451 34.2148 1.85217 34.236 2.00502C34.2637 2.19257 34.2779 2.38197 34.2785 2.57166V20.4573C34.2779 20.647 34.2637 20.8364 34.236 21.024C34.2125 21.1763 34.1647 21.3235 34.0945 21.4599C33.9571 21.7172 33.751 21.9289 33.5004 22.0701C33.3727 22.1421 33.2339 22.1913 33.0901 22.2154C32.9121 22.2427 32.7325 22.2572 32.5525 22.259H2.504C2.31932 22.2578 2.13494 22.2432 1.95226 22.2154C1.80397 22.1913 1.66057 22.1422 1.52785 22.0701C1.40031 22.0045 1.2853 21.9159 1.18832 21.8086C1.08801 21.7051 1.0023 21.5877 0.933669 21.4599C0.861385 21.3245 0.813461 21.1768 0.792197 21.024C0.764539 20.8364 0.750354 20.647 0.749756 20.4573V2.57166C0.750354 2.38197 0.764539 2.19257 0.792197 2.00502C0.815671 1.85272 0.863471 1.70544 0.933669 1.56914C0.99749 1.43815 1.08375 1.32003 1.18832 1.22043C1.28906 1.11741 1.40335 1.02938 1.52785 0.958901C1.65967 0.884665 1.80344 0.835446 1.95226 0.813608C2.13489 0.785202 2.3193 0.770633 2.504 0.77002H31.8876Z" fill="white"/>
<path d="M9.20976 7.77324C9.53124 7.38126 9.68887 6.8747 9.64832 6.36389C9.15372 6.41329 8.69718 6.65815 8.37508 7.04677C8.10628 7.36642 7.85163 7.904 7.92237 8.41253C8.40337 8.44159 8.89852 8.151 9.20976 7.77324Z" fill="#231F20"/>
<path d="M9.64826 8.48515C8.9409 8.44156 8.33258 8.89197 7.99305 8.89197C7.65351 8.89197 7.13007 8.49968 6.57833 8.51421C6.21387 8.52548 5.85839 8.63301 5.54617 8.82642C5.23394 9.01983 4.97551 9.29261 4.79579 9.61844C4.03185 10.9697 4.59773 12.9602 5.33338 14.0644C5.68706 14.602 6.12562 15.2122 6.69151 15.1832C7.2291 15.1687 7.44131 14.82 8.09208 14.82C8.74284 14.82 8.9409 15.1832 9.50679 15.1687C10.101 15.1541 10.4688 14.6311 10.8225 14.079C11.0731 13.6911 11.2729 13.2709 11.4167 12.8294C11.4025 12.8149 10.2707 12.379 10.2707 11.0423C10.2566 9.92356 11.162 9.38597 11.2044 9.35691C10.7093 8.60138 9.91706 8.51421 9.64826 8.48515Z" fill="#231F20"/>
<path d="M16.7077 6.97412C18.2498 6.97412 19.3249 8.06382 19.3249 9.64753C19.3249 11.2312 18.2356 12.3355 16.6794 12.3355H14.9676V15.1251H13.7368V6.97412H16.7077ZM14.9676 11.2748H16.3823C17.4575 11.2748 18.0658 10.6791 18.0658 9.64753C18.0658 8.61594 17.4575 8.03477 16.3823 8.03477H14.9676V11.2748Z" fill="#231F20"/>
<path d="M19.6221 13.4397C19.6221 12.3936 20.4002 11.7979 21.829 11.7107L23.3569 11.609V11.1586C23.3569 10.5048 22.9325 10.1416 22.1827 10.1416C21.5602 10.1416 21.1075 10.4757 21.0226 10.9697H19.905C19.9333 9.90909 20.9095 9.13904 22.211 9.13904C23.6257 9.13904 24.5311 9.89457 24.5311 11.0714V15.1251H23.3994V14.1517H23.3711C23.0457 14.791 22.3383 15.1978 21.5602 15.1978C20.4285 15.1833 19.6221 14.4858 19.6221 13.4397ZM23.3569 12.9167V12.4663L21.9846 12.5534C21.2207 12.597 20.8104 12.9021 20.8104 13.4107C20.8104 13.9192 21.2348 14.2243 21.8856 14.2243C22.7344 14.2243 23.3569 13.6722 23.3569 12.9167Z" fill="#231F20"/>
<path d="M25.592 17.3045V16.3311C25.7139 16.3491 25.8367 16.3588 25.9598 16.3601C26.4974 16.3601 26.8087 16.1277 26.9926 15.5174L27.1058 15.1542L25.0261 9.2262H26.3135L27.7707 14.0354H27.799L29.2561 9.2262H30.5152L28.3507 15.4593C27.8555 16.8832 27.2897 17.3626 26.0872 17.3626C25.9212 17.3521 25.756 17.3327 25.592 17.3045Z" fill="#231F20"/>
</g>
<defs>
<clipPath id="clip0">
<rect width="35" height="23" fill="white"/>
</clipPath>
</defs>
</svg>
