<svg width="35" height="22" viewBox="0 0 35 22" fill="none" xmlns="http://www.w3.org/2000/svg">
<path d="M1.1852 21.7226C0.685458 21.7226 0.278809 21.3181 0.278809 20.8209V1.17896C0.278809 0.681784 0.685319 0.277222 1.1852 0.277222H33.8151C34.3149 0.277222 34.7215 0.681784 34.7215 1.17896V20.8209C34.7215 21.3181 34.3149 21.7226 33.8151 21.7226H1.1852Z" fill="white"/>
<path d="M33.8149 0.554575C34.1611 0.554575 34.4426 0.834636 34.4426 1.17903V20.821C34.4426 21.1654 34.1611 21.4454 33.8149 21.4454H1.18511C0.838941 21.4454 0.557436 21.1654 0.557436 20.821V1.17903C0.557436 0.834636 0.838941 0.554575 1.18511 0.554575H33.8149ZM33.8149 0H1.18511C0.533327 0 0 0.53059 0 1.17903V20.821C0 21.4694 0.533327 22 1.18511 22H33.8149C34.4667 22 35 21.4694 35 20.821V1.17903C35 0.53059 34.4667 0 33.8149 0Z" fill="#004A97"/>
<path d="M5.85938 15.81C5.85938 16.2261 6.15831 16.2745 6.4242 16.2745C7.59733 16.2745 7.98224 15.3942 7.98224 14.5894C7.98224 13.5792 7.33087 12.8502 6.28317 12.8502C6.06006 12.8502 5.95735 12.866 5.85938 12.8719V15.81ZM5.32717 13.2767C5.32717 12.7909 5.07214 12.8229 4.82812 12.8178V12.6775C5.03967 12.6877 5.25665 12.6877 5.46876 12.6877C5.69661 12.6877 6.00613 12.6775 6.40818 12.6775C7.81403 12.6775 8.57995 13.6114 8.57995 14.5679C8.57995 15.1031 8.265 16.4478 6.34282 16.4478C6.06619 16.4478 5.81074 16.4371 5.55572 16.4371C5.31156 16.4371 5.07228 16.4421 4.82826 16.4478V16.3073C5.15367 16.2746 5.31156 16.2639 5.32731 15.8968V13.2767H5.32717Z" fill="#231F20"/>
<path d="M9.35049 13.1473C9.20904 13.1473 9.08445 13.0177 9.08445 12.8774C9.08445 12.7421 9.21489 12.6176 9.35049 12.6176C9.49138 12.6176 9.61666 12.7312 9.61666 12.8774C9.61666 13.0234 9.49695 13.1473 9.35049 13.1473ZM8.76978 16.3071H8.87262C9.02452 16.3071 9.13336 16.3071 9.13336 16.1284V14.6649C9.13336 14.4275 9.05212 14.3947 8.85088 14.287V14.2007C9.10605 14.1245 9.41041 14.0226 9.43187 14.0062C9.47006 13.9846 9.50225 13.9789 9.52984 13.9789C9.55646 13.9789 9.56761 14.0113 9.56761 14.055V16.1286C9.56761 16.3073 9.68732 16.3073 9.8395 16.3073H9.93133V16.4477C9.74668 16.4477 9.55632 16.437 9.36163 16.437C9.16611 16.437 8.97059 16.442 8.76978 16.4477V16.3071Z" fill="#231F20"/>
<path d="M10.4473 14.6974C10.4473 14.4977 10.3874 14.4439 10.1326 14.341V14.2384C10.3656 14.1629 10.5881 14.0923 10.8489 13.9788C10.8654 13.9788 10.8811 13.9896 10.8811 14.0327V14.3839C11.1911 14.1627 11.4572 13.9788 11.8215 13.9788C12.2824 13.9788 12.4451 14.3137 12.4451 14.7351V16.1283C12.4451 16.307 12.5649 16.307 12.7168 16.307H12.8147V16.4475C12.6241 16.4475 12.4343 16.4368 12.239 16.4368C12.0435 16.4368 11.8479 16.4418 11.6523 16.4475V16.307H11.7503C11.9025 16.307 12.0105 16.307 12.0105 16.1283V14.7299C12.0105 14.4216 11.8214 14.2706 11.5116 14.2706C11.3377 14.2706 11.0608 14.4108 10.8811 14.53V16.1282C10.8811 16.3069 11.0011 16.3069 11.1532 16.3069H11.2507V16.4473C11.0608 16.4473 10.8707 16.4366 10.6749 16.4366C10.4798 16.4366 10.2841 16.4416 10.0889 16.4473V16.3069H10.1868C10.3387 16.3069 10.4472 16.3069 10.4472 16.1282V14.6974H10.4473Z" fill="#231F20"/>
<path d="M14.1887 14.784C14.3241 14.784 14.34 14.7137 14.34 14.6487C14.34 14.3738 14.1718 14.1522 13.8676 14.1522C13.5368 14.1522 13.3086 14.3948 13.2436 14.7841H14.1887V14.784ZM13.2274 14.957C13.2162 15.0056 13.2162 15.0864 13.2274 15.2702C13.2593 15.7832 13.5913 16.2044 14.0251 16.2044C14.3241 16.2044 14.5578 16.0423 14.7582 15.8428L14.8339 15.9184C14.584 16.2478 14.2748 16.5288 13.83 16.5288C12.9665 16.5288 12.7927 15.6966 12.7927 15.3511C12.7927 14.2922 13.5093 13.9788 13.8889 13.9788C14.3292 13.9788 14.8017 14.2542 14.8069 14.8268C14.8069 14.8597 14.8069 14.8917 14.8017 14.9243L14.7527 14.9569H13.2274V14.957Z" fill="#231F20"/>
<path d="M14.9324 16.3071H15.0791C15.2306 16.3071 15.3393 16.3071 15.3393 16.1284V14.611C15.3393 14.4439 15.1386 14.4109 15.0571 14.3676V14.2869C15.4534 14.1195 15.6707 13.9789 15.7203 13.9789C15.7521 13.9789 15.7684 13.9951 15.7684 14.0495V14.5357H15.7798C15.9151 14.3251 16.1435 13.979 16.4747 13.979C16.6103 13.979 16.7839 14.0707 16.7839 14.2653C16.7839 14.4112 16.6812 14.5414 16.5293 14.5414C16.3604 14.5414 16.3604 14.411 16.1702 14.411C16.0779 14.411 15.7738 14.5357 15.7738 14.86V16.1286C15.7738 16.3073 15.8824 16.3073 16.0344 16.3073H16.3382V16.4477C16.0396 16.442 15.8123 16.437 15.5787 16.437C15.356 16.437 15.1279 16.442 14.9325 16.4477V16.3071H14.9324Z" fill="#231F20"/>
<path d="M17.0223 15.6965C17.0932 16.053 17.3099 16.3559 17.7069 16.3559C18.0267 16.3559 18.1462 16.1613 18.1462 15.9724C18.1462 15.3347 16.9629 15.5402 16.9629 14.6706C16.9629 14.3676 17.2073 13.9789 17.8046 13.9789C17.9781 13.9789 18.2115 14.0278 18.4231 14.1358L18.4611 14.6864H18.3363C18.2821 14.3463 18.0922 14.1519 17.7444 14.1519C17.5273 14.1519 17.3212 14.276 17.3212 14.5082C17.3212 15.1406 18.5804 14.9458 18.5804 15.7939C18.5804 16.1502 18.2929 16.5288 17.6466 16.5288C17.4296 16.5288 17.1742 16.453 16.9846 16.345L16.9246 15.7237L17.0223 15.6965Z" fill="#231F20"/>
<path d="M23.4832 13.6548H23.3477C23.2445 13.0232 22.7938 12.7693 22.186 12.7693C21.5609 12.7693 20.6545 13.1848 20.6545 14.4812C20.6545 15.5726 21.4366 16.356 22.2724 16.356C22.8095 16.356 23.2556 15.9886 23.364 15.4211L23.4889 15.4534L23.364 16.2423C23.1361 16.3829 22.5223 16.529 22.1635 16.529C20.8935 16.529 20.0901 15.7132 20.0901 14.4979C20.0901 13.3904 21.0837 12.5959 22.1479 12.5959C22.5874 12.5959 23.0108 12.7368 23.4289 12.8828L23.4832 13.6548Z" fill="#231F20"/>
<path d="M23.6792 16.3071H23.7819C23.9345 16.3071 24.0428 16.3071 24.0428 16.1284V13.1205C24.0428 12.7692 23.9616 12.7584 23.7549 12.6989V12.6124C23.972 12.5424 24.2003 12.4453 24.3144 12.38C24.3734 12.3481 24.4173 12.3206 24.4333 12.3206C24.4665 12.3206 24.4772 12.3534 24.4772 12.3967V16.1285C24.4772 16.3073 24.5968 16.3073 24.7487 16.3073H24.8405V16.4477C24.6566 16.4477 24.4665 16.437 24.2708 16.437C24.0754 16.437 23.8802 16.442 23.679 16.4477V16.3071H23.6792Z" fill="#231F20"/>
<path d="M27.1652 16.1504C27.1652 16.248 27.2246 16.2531 27.3167 16.2531C27.3822 16.2531 27.4633 16.248 27.5344 16.248V16.3618C27.3008 16.3831 26.8554 16.4966 26.7522 16.5291L26.7251 16.5126V16.0751C26.3997 16.3396 26.1496 16.5291 25.7636 16.5291C25.4706 16.5291 25.1667 16.3396 25.1667 15.8865V14.5033C25.1667 14.3625 25.1452 14.2275 24.8416 14.2009V14.098C25.0371 14.0927 25.4706 14.0604 25.5414 14.0604C25.6018 14.0604 25.6018 14.098 25.6018 14.2171V15.6105C25.6018 15.7727 25.6018 16.2369 26.074 16.2369C26.2584 16.2369 26.5027 16.0967 26.7306 15.908V14.4545C26.7306 14.3466 26.4701 14.2871 26.275 14.2333V14.1361C26.7632 14.1033 27.0675 14.0603 27.1217 14.0603C27.1655 14.0603 27.1655 14.0979 27.1655 14.1575V16.1504H27.1652Z" fill="#231F20"/>
<path d="M28.2454 15.8371C28.2454 16.0423 28.4409 16.3882 28.8046 16.3882C29.3854 16.3882 29.6296 15.821 29.6296 15.3399C29.6296 14.7567 29.1849 14.2707 28.7615 14.2707C28.5599 14.2707 28.3918 14.4005 28.2454 14.5249V15.8371ZM28.2454 14.3678C28.4625 14.1846 28.7558 13.9789 29.0543 13.9789C29.6842 13.9789 30.0643 14.525 30.0643 15.1135C30.0643 15.8209 29.5429 16.5289 28.7661 16.5289C28.3648 16.5289 28.153 16.3989 28.0115 16.3394L27.8492 16.4636L27.7353 16.4044C27.7838 16.0858 27.8112 15.7725 27.8112 15.4428V13.1205C27.8112 12.7692 27.7294 12.7584 27.5232 12.6989V12.6124C27.7406 12.5424 27.9684 12.4453 28.0823 12.38C28.1422 12.3481 28.1856 12.3206 28.2022 12.3206C28.2345 12.3206 28.2454 12.3534 28.2454 12.3967V14.3678Z" fill="#231F20"/>
<path d="M4.82202 19.5883H4.86355C4.96974 19.5883 5.08207 19.5739 5.08207 19.4209V17.8811C5.08207 17.7279 4.96974 17.7133 4.86355 17.7133H4.82202V17.625C4.93713 17.625 5.11454 17.6368 5.25961 17.6368C5.40719 17.6368 5.58418 17.625 5.72312 17.625V17.7133H5.68145C5.57568 17.7133 5.46307 17.7279 5.46307 17.8811V19.4209C5.46307 19.5739 5.57554 19.5883 5.68145 19.5883H5.72312V19.6767C5.58139 19.6767 5.40371 19.6653 5.25654 19.6653C5.11147 19.6653 4.93713 19.6767 4.82202 19.6767V19.5883Z" fill="#231F20"/>
<path d="M5.71007 19.6641L5.71021 19.6016H5.68178C5.57615 19.6016 5.45059 19.5833 5.44975 19.4209V17.8811C5.45045 17.7186 5.57601 17.7005 5.68178 17.7005H5.71021V17.6378C5.57392 17.638 5.40265 17.6496 5.25939 17.6496C5.11905 17.6496 4.94917 17.6386 4.83476 17.6378V17.7005H4.86305C4.9684 17.7005 5.09425 17.7186 5.09425 17.8811V19.4209C5.09425 19.5833 4.9684 19.6016 4.86305 19.6016H4.83476V19.6641C4.94917 19.6631 5.11598 19.6523 5.25618 19.6523C5.4 19.6523 5.57071 19.6634 5.71007 19.6641ZM5.72289 19.6893C5.57991 19.6893 5.40306 19.6775 5.25604 19.6775C5.11139 19.6775 4.93774 19.6893 4.82166 19.6893H4.80884V19.6769V19.5887V19.5758H4.8218H4.86305C4.97022 19.5731 5.06777 19.5646 5.06874 19.4209V17.8811C5.06777 17.7372 4.97035 17.7279 4.86305 17.7261H4.80884V17.7134V17.6123H4.8218C4.93774 17.6123 5.11487 17.6238 5.25939 17.6238C5.40627 17.6238 5.58326 17.6123 5.72289 17.6123H5.73599V17.6255V17.7261H5.72289H5.68178C5.57448 17.7279 5.47637 17.7374 5.47581 17.8811V19.4209C5.47637 19.5646 5.57448 19.5731 5.68178 19.5758H5.73613V19.5887V19.6893H5.72289Z" fill="#231F20"/>
<path d="M7.75244 19.0975L7.75829 19.0917V17.9899C7.75829 17.7486 7.58966 17.7134 7.50117 17.7134H7.43609V17.6252C7.57517 17.6252 7.71105 17.637 7.84971 17.637C7.97081 17.637 8.09261 17.6252 8.21316 17.6252V17.7134H8.16926C8.04481 17.7134 7.90587 17.7369 7.90587 18.0868V19.424C7.90587 19.527 7.9088 19.6299 7.92329 19.721H7.81097L6.28972 18.0336V19.2449C6.28972 19.5007 6.33961 19.5886 6.56719 19.5886H6.6175V19.6769C6.4904 19.6769 6.36358 19.6654 6.23649 19.6654C6.10382 19.6654 5.9678 19.6769 5.83472 19.6769V19.5886H5.87611C6.07999 19.5886 6.14186 19.4504 6.14186 19.2159V17.9775C6.14186 17.8131 6.00557 17.7134 5.87318 17.7134H5.83486V17.6252C5.9469 17.6252 6.06229 17.637 6.17433 17.637C6.26325 17.637 6.34895 17.6252 6.43758 17.6252L7.75244 19.0975Z" fill="#231F20"/>
<path d="M7.74563 19.0916V19.0905L7.74326 19.0887L7.74563 19.0916ZM7.7526 19.0975L7.76193 19.089L7.7526 19.0975ZM7.81127 19.7076H7.90896C7.89572 19.6192 7.89335 19.5216 7.89335 19.4238V18.0866C7.89335 17.7339 8.04204 17.7005 8.16928 17.7002H8.20036V17.6377C8.08399 17.6385 7.96735 17.6492 7.84987 17.6492C7.71455 17.6492 7.583 17.6385 7.44949 17.6377L7.44921 17.7002H7.50147C7.59233 17.7005 7.77127 17.7407 7.77127 17.9897L7.76737 19.1008L7.76151 19.1065L7.75148 19.1159L6.4376 17.6377C6.34981 17.6377 6.26438 17.6492 6.17422 17.6492C6.06593 17.6492 5.955 17.6385 5.84784 17.6377L5.84728 17.7002H5.87348C6.012 17.7005 6.15471 17.8057 6.15471 17.9778V19.2156C6.15471 19.4509 6.08879 19.601 5.87641 19.6018L5.84784 19.601V19.6641C5.97577 19.6631 6.1076 19.6523 6.23665 19.6523C6.35984 19.6523 6.4829 19.6631 6.60484 19.6641V19.6018H6.56749C6.33504 19.601 6.27748 19.5002 6.2772 19.2447V18.0005L7.81127 19.7076ZM7.92345 19.7333L7.80179 19.7291L6.30243 18.0666V19.2448C6.30605 19.5004 6.34507 19.573 6.56749 19.5758H6.63076V19.5885V19.6893H6.61766C6.48986 19.6893 6.36263 19.6775 6.23665 19.6775C6.1044 19.6775 5.96866 19.6893 5.83474 19.6893H5.82178V19.6768V19.5758H5.83474H5.87641C6.07165 19.5747 6.12739 19.4499 6.12962 19.2157V17.9779C6.12906 17.8214 6.00002 17.7261 5.87362 17.7261H5.82192V17.7128V17.6123H5.83488C5.94776 17.6123 6.06343 17.6238 6.17422 17.6238C6.26229 17.6238 6.34772 17.6123 6.44736 17.6169L7.74563 19.071V17.99C7.74409 17.7565 7.58746 17.7281 7.50133 17.7263H7.42315V17.713V17.6124H7.43625C7.57589 17.6124 7.71176 17.624 7.84987 17.624C7.97 17.624 8.0911 17.6124 8.21332 17.6124H8.22628V17.6252V17.7263H8.21332H8.16928C8.0472 17.7295 7.9222 17.7401 7.91857 18.0867V19.424C7.91857 19.5268 7.92192 19.6294 7.93599 19.7187L7.93864 19.7334H7.92345V19.7333Z" fill="#231F20"/>
<path d="M8.65593 17.772C8.43407 17.772 8.42557 17.8251 8.38111 18.0394H8.29248C8.30405 17.9572 8.31882 17.8749 8.32802 17.7897C8.33986 17.7071 8.34572 17.625 8.34572 17.54H8.41665C8.44034 17.6282 8.51434 17.625 8.59433 17.625H10.1181C10.1982 17.625 10.2719 17.6221 10.2781 17.5339L10.3486 17.546C10.3372 17.625 10.325 17.7045 10.3165 17.784C10.3108 17.8634 10.3108 17.9425 10.3108 18.0218L10.2219 18.0545C10.2159 17.9458 10.2013 17.772 10.0034 17.772H9.51884V19.3356C9.51884 19.5623 9.62238 19.5884 9.76383 19.5884H9.82013V19.6767C9.70488 19.6767 9.49793 19.6653 9.33865 19.6653C9.16124 19.6653 8.95416 19.6767 8.83891 19.6767V19.5884H8.89521C9.05798 19.5884 9.14034 19.5739 9.14034 19.3417V17.772H8.65593Z" fill="#231F20"/>
<path d="M9.8204 19.6893C9.70403 19.6893 9.49736 19.6777 9.33877 19.6777C9.16151 19.6777 8.95498 19.6893 8.83903 19.6893H8.82649V19.6769V19.5758H8.83903H8.89533C9.0581 19.572 9.1236 19.57 9.12737 19.3419V17.7848H8.65591V17.7722V17.759H9.15301V19.3419C9.15301 19.5779 9.05741 19.6017 8.89533 19.602H8.85157V19.664C8.96808 19.6633 9.16722 19.6523 9.33863 19.6523C9.49249 19.6523 9.68982 19.6631 9.80688 19.664V19.602H9.76368C9.62084 19.6017 9.50573 19.5668 9.50573 19.3358V17.7589H10.0031C10.2013 17.7596 10.2275 17.9272 10.2337 18.0366L10.2976 18.0131C10.2976 17.9363 10.2978 17.8595 10.3033 17.7823C10.3119 17.7063 10.3226 17.6317 10.3338 17.5563L10.2889 17.549C10.2751 17.6345 10.1919 17.6391 10.1178 17.638H8.59432H8.57885C8.50945 17.6381 8.43364 17.6346 8.40702 17.5527H8.35824C8.35769 17.6339 8.35211 17.7128 8.34096 17.7912C8.33218 17.8719 8.31866 17.9495 8.30793 18.0274H8.37106C8.40994 17.8224 8.43517 17.7561 8.65605 17.759V17.7722V17.7848C8.43726 17.7891 8.442 17.8254 8.39378 18.0427L8.39169 18.0526H8.38124H8.27783L8.2795 18.0374C8.29149 17.9553 8.30654 17.873 8.31504 17.7876C8.3273 17.706 8.33302 17.6245 8.33302 17.5402V17.5272H8.3457H8.42681L8.42904 17.5365C8.44897 17.6105 8.50359 17.6111 8.57899 17.6125H8.59446H10.1181C10.2003 17.6112 10.2604 17.6101 10.2654 17.5332L10.2665 17.5193L10.2799 17.5221L10.3633 17.5352L10.3613 17.5481C10.3495 17.627 10.338 17.7062 10.3292 17.7849C10.3236 17.8635 10.3236 17.9427 10.3236 18.0221V18.031L10.315 18.0343L10.2106 18.0725L10.2098 18.0554C10.2017 17.9448 10.1903 17.7849 10.0035 17.7849H9.53179V19.3359C9.53485 19.5576 9.62321 19.5732 9.76396 19.5759H9.83308V19.5887V19.6895H9.8204V19.6893Z" fill="#231F20"/>
<path d="M10.4428 19.5883H10.4844C10.5905 19.5883 10.7031 19.5739 10.7031 19.4209V17.8811C10.7031 17.7279 10.5905 17.7133 10.4844 17.7133H10.4428V17.625C10.6225 17.625 10.9304 17.6368 11.178 17.6368C11.4266 17.6368 11.7335 17.625 11.9345 17.625C11.9293 17.7513 11.9321 17.9458 11.9407 18.0749L11.8517 18.0982C11.8375 17.9071 11.8021 17.7546 11.4917 17.7546H11.0816V18.5242H11.4325C11.6098 18.5242 11.6484 18.4247 11.6659 18.2658H11.7546C11.7487 18.3806 11.7456 18.4953 11.7456 18.6098C11.7456 18.7217 11.7487 18.8333 11.7546 18.9448L11.6659 18.9624C11.6485 18.7863 11.6396 18.6716 11.4356 18.6716H11.0816V19.3561C11.0816 19.5474 11.2523 19.5474 11.4414 19.5474C11.7959 19.5474 11.9524 19.5237 12.0412 19.1892L12.1236 19.2094C12.0851 19.3655 12.0499 19.5208 12.0235 19.6768C11.8343 19.6768 11.4945 19.6654 11.229 19.6654C10.9626 19.6654 10.6113 19.6768 10.4426 19.6768V19.5883H10.4428Z" fill="#231F20"/>
<path d="M12.0124 19.664C12.0382 19.5153 12.0719 19.367 12.1082 19.2189L12.0501 19.2044C11.9616 19.5331 11.7901 19.5625 11.4415 19.5603C11.2553 19.5603 11.0692 19.5603 11.0681 19.356V18.6588H11.4355C11.6419 18.6567 11.6626 18.7804 11.6774 18.9476L11.7412 18.9347C11.7355 18.8263 11.7326 18.7176 11.7326 18.6098C11.7326 18.4995 11.7355 18.3893 11.7412 18.2784H11.6774C11.6608 18.4318 11.6125 18.539 11.4326 18.5372H11.0683V17.7415H11.4919C11.7992 17.7392 11.8501 17.8974 11.8634 18.0823L11.927 18.065C11.9218 17.9821 11.9185 17.8755 11.9185 17.7774C11.9185 17.7271 11.9197 17.6794 11.9216 17.6378C11.7209 17.6386 11.4213 17.6493 11.1784 17.6493C10.9356 17.6493 10.6368 17.6386 10.4559 17.6378V17.7003H10.4845C10.5896 17.7006 10.7153 17.7186 10.716 17.8813V19.4211C10.7153 19.5834 10.5896 19.6012 10.4845 19.6021H10.4559V19.6641C10.6279 19.6635 10.9695 19.6525 11.2289 19.6525C11.4897 19.6523 11.8221 19.6634 12.0124 19.664ZM12.0234 19.6893C11.8339 19.6893 11.4939 19.6771 11.2289 19.6771C10.9628 19.6771 10.6116 19.6893 10.4428 19.6893H10.4304V19.6769V19.5885V19.5758H10.4428H10.4845C10.5914 19.574 10.6887 19.5646 10.69 19.4209V17.8811C10.6888 17.7375 10.5914 17.7279 10.4845 17.7261H10.4306V17.7134V17.6123H10.443C10.6234 17.6123 10.9309 17.6238 11.1784 17.6238C11.4267 17.6238 11.7334 17.6123 11.9347 17.6123H11.9478L11.9473 17.6259C11.9454 17.6698 11.9443 17.7221 11.9443 17.7774C11.9443 17.8791 11.9473 17.9904 11.9532 18.074L11.9538 18.0844L11.9437 18.0874L11.8399 18.1145L11.8395 18.0992C11.8221 17.9086 11.7963 17.7698 11.4921 17.767H11.0939L11.0936 18.5114H11.4327C11.603 18.5096 11.6334 18.4231 11.6536 18.2646L11.6543 18.2528H11.666H11.7678L11.7676 18.2661C11.7619 18.3809 11.7584 18.4953 11.7584 18.6098C11.7584 18.721 11.7619 18.8327 11.7676 18.9443L11.7678 18.9549L11.7571 18.9573L11.6543 18.9777L11.6536 18.9638C11.6331 18.7843 11.6318 18.686 11.4358 18.6839H11.0939V19.356C11.0943 19.5346 11.2492 19.5336 11.4416 19.5346C11.7974 19.5325 11.9398 19.5152 12.0289 19.1855L12.0319 19.1736L12.0443 19.1757L12.139 19.2001L12.1363 19.2121C12.098 19.3677 12.0627 19.5232 12.036 19.6787L12.0337 19.6891H12.0234V19.6893Z" fill="#231F20"/>
<path d="M12.9009 18.6181H13.0453C13.3412 18.6181 13.5003 18.5068 13.5003 18.1597C13.5003 17.8984 13.332 17.7309 13.0687 17.7309C12.9801 17.7309 12.9423 17.7399 12.9009 17.7427V18.6181ZM12.5228 17.9363C12.5228 17.7221 12.4045 17.7132 12.3128 17.7132H12.2595V17.625C12.3541 17.625 12.5372 17.6368 12.7175 17.6368C12.8944 17.6368 13.0365 17.625 13.193 17.625C13.5648 17.625 13.8964 17.7248 13.8964 18.1426C13.8964 18.407 13.719 18.5683 13.4857 18.66L13.9906 19.412C14.0735 19.5362 14.1322 19.5711 14.2772 19.5885V19.6768C14.1795 19.6768 14.0849 19.6654 13.9878 19.6654C13.8962 19.6654 13.8012 19.6768 13.71 19.6768C13.4825 19.3801 13.2872 19.0627 13.0953 18.7242H12.9006V19.3536C12.9006 19.5799 13.0068 19.5885 13.1422 19.5885H13.1957V19.6768C13.0269 19.6768 12.8562 19.6654 12.6874 19.6654C12.5457 19.6654 12.4068 19.6768 12.259 19.6768V19.5885H12.3124C12.4221 19.5885 12.5224 19.5387 12.5224 19.43V17.9363H12.5228Z" fill="#231F20"/>
<path d="M13.0451 18.6058C13.3375 18.6029 13.485 18.502 13.4879 18.1607C13.4861 17.9038 13.3258 17.7446 13.0686 17.7435C12.9888 17.7435 12.9512 17.7507 12.9134 17.7544V18.6058H13.0451ZM12.9006 18.6308H12.8875V17.7309L12.8988 17.73C12.9392 17.7267 12.9791 17.7187 13.0684 17.7187C13.3375 17.7187 13.5127 17.8927 13.513 18.1607C13.5121 18.5114 13.3431 18.6308 13.045 18.6309H12.9006V18.6308ZM12.9006 18.7115H13.1026L13.1062 18.7181C13.2985 19.0559 13.4926 19.3732 13.7102 19.6643C13.8001 19.6643 13.8951 19.6525 13.9871 19.6525C14.0814 19.6525 14.1726 19.6627 14.2643 19.6641V19.5996C14.1259 19.5829 14.0608 19.5411 13.9801 19.4194L13.4657 18.6544L13.4804 18.6485C13.7117 18.5579 13.8832 18.4008 13.8832 18.1425C13.8831 17.7347 13.5643 17.6401 13.1929 17.6381C13.0373 17.6381 12.8953 17.6499 12.7174 17.6499C12.5439 17.6499 12.3686 17.6389 12.2718 17.6381V17.7006H12.3125C12.4042 17.7009 12.5347 17.716 12.5347 17.9367V19.4305C12.5347 19.5485 12.4236 19.602 12.3125 19.6024H12.2718V19.6644C12.4138 19.6638 12.5487 19.6527 12.6875 19.6527C12.8525 19.6527 13.0194 19.6638 13.1827 19.6644V19.6024H13.1423C13.0078 19.6021 12.8875 19.5856 12.8875 19.3536V18.712H12.9006V18.7115ZM14.2772 19.6893C14.1781 19.6893 14.0842 19.6776 13.9869 19.6776C13.8969 19.6776 13.8024 19.6893 13.6996 19.6844C13.473 19.3884 13.2786 19.0729 13.0878 18.7374H12.9132V19.353C12.9165 19.5743 13.0056 19.5726 13.1421 19.5757H13.2085V19.5884V19.6892H13.1954C13.0265 19.6892 12.8549 19.6774 12.6874 19.6774C12.5464 19.6774 12.4074 19.6892 12.2592 19.6892H12.2463V19.6767V19.5757H12.2592H12.3125C12.4187 19.575 12.5086 19.5288 12.509 19.4299V17.9363C12.5068 17.7279 12.4042 17.7291 12.3125 17.7261H12.2463V17.7134V17.6122H12.2592C12.3548 17.6122 12.5372 17.6237 12.7172 17.6237C12.8937 17.6237 13.0352 17.6122 13.1927 17.6122C13.5652 17.613 13.9079 17.7151 13.9089 18.1421C13.9089 18.4073 13.7326 18.5731 13.5049 18.6656L14.001 19.405C14.0836 19.5269 14.1351 19.5574 14.2789 19.5758L14.2896 19.5775V19.5886V19.6893H14.2772Z" fill="#231F20"/>
<path d="M16.2831 19.0975L16.2882 19.0917V17.9899C16.2882 17.7486 16.1204 17.7134 16.0317 17.7134H15.9669V17.6252C16.1058 17.6252 16.2411 17.637 16.3805 17.637C16.5018 17.637 16.6221 17.6252 16.7441 17.6252V17.7134H16.6996C16.5754 17.7134 16.4366 17.7369 16.4366 18.0868V19.424C16.4366 19.527 16.4396 19.6299 16.454 19.721H16.3423L14.8209 18.0336V19.2449C14.8209 19.5007 14.8708 19.5886 15.0982 19.5886H15.1485V19.6769C15.0216 19.6769 14.8943 19.6654 14.7674 19.6654C14.6339 19.6654 14.4983 19.6769 14.3655 19.6769V19.5886H14.4066C14.6106 19.5886 14.6729 19.4504 14.6729 19.2159V17.9775C14.6729 17.8131 14.5369 17.7134 14.4039 17.7134H14.3655V17.6252C14.4772 17.6252 14.5933 17.637 14.7054 17.637C14.7932 17.637 14.8793 17.6252 14.9681 17.6252L16.2831 19.0975Z" fill="#231F20"/>
<path d="M16.2757 19.0917V19.0908L16.2736 19.0886L16.2757 19.0917ZM16.2827 19.0975L16.2923 19.089L16.2827 19.0975ZM16.3423 19.7076H16.4391C16.4261 19.6197 16.4234 19.5216 16.4234 19.4238V18.0866C16.4237 17.7339 16.5731 17.7012 16.6995 17.7002H16.7306V17.6377C16.6142 17.6385 16.4976 17.6492 16.3804 17.6492C16.2447 17.6492 16.113 17.6385 15.9793 17.6377V17.7002H16.0316C16.1226 17.7011 16.3015 17.7407 16.3015 17.9897L16.2972 19.1008L16.2919 19.1065L16.2826 19.1162L14.9681 17.6377C14.8802 17.6377 14.7945 17.6492 14.7053 17.6492C14.5958 17.6492 14.4854 17.6385 14.3779 17.6377V17.7002H14.4039C14.5428 17.7011 14.6849 17.8053 14.6849 17.9774V19.215C14.6849 19.4509 14.6182 19.601 14.4064 19.602L14.3778 19.6017V19.6643C14.5055 19.6634 14.637 19.6525 14.7666 19.6525C14.8905 19.6525 15.0133 19.6633 15.1355 19.6643V19.6021H15.098C14.8656 19.6019 14.8076 19.5009 14.8069 19.2449V18.0012L16.3423 19.7076ZM16.4541 19.7333L16.3327 19.7291L14.8332 18.0668V19.2446C14.8367 19.5007 14.8756 19.5729 15.0984 19.5758H15.161V19.5886V19.6893H15.1482C15.0205 19.6893 14.8937 19.6771 14.767 19.6771C14.6352 19.6771 14.4986 19.6893 14.3655 19.6893H14.3523V19.6769V19.5758H14.3655H14.4066C14.6017 19.5751 14.6576 19.4499 14.6596 19.215V17.9774C14.6593 17.8207 14.5304 17.726 14.4041 17.726H14.3523V17.7133V17.6122H14.3655C14.4784 17.6122 14.5939 17.6237 14.7054 17.6237C14.7923 17.6237 14.8778 17.6122 14.9769 17.6159L16.2756 19.0707V17.9897C16.2749 17.7562 16.1174 17.7274 16.0316 17.726H15.9537V17.7133V17.6122H15.9665C16.106 17.6122 16.2423 17.6237 16.3804 17.6237C16.5008 17.6237 16.6216 17.6122 16.7436 17.6122H16.7567V17.6254V17.726H16.7436H16.6997C16.5777 17.7289 16.4522 17.7399 16.4492 18.0865V19.4237C16.4492 19.5266 16.4519 19.6285 16.4669 19.7187L16.4685 19.7332H16.4541V19.7333Z" fill="#231F20"/>
<path d="M17.6504 17.9544H17.6442L17.3697 18.7863H17.9217L17.6504 17.9544ZM17.2191 19.2565C17.1892 19.3562 17.1537 19.4333 17.1537 19.4854C17.1537 19.574 17.2782 19.5886 17.3753 19.5886H17.4083V19.6768C17.2897 19.6704 17.169 19.6654 17.0502 19.6654C16.9438 19.6654 16.8381 19.6704 16.7314 19.6768V19.5886H16.7494C16.8644 19.5886 16.9622 19.5208 17.0061 19.3973L17.4788 18.0487C17.5174 17.9397 17.5707 17.7929 17.5886 17.6839C17.6826 17.6517 17.8013 17.5932 17.8572 17.5576C17.8664 17.5547 17.8718 17.5516 17.8807 17.5516C17.8897 17.5516 17.8951 17.5516 17.9016 17.5609C17.9104 17.5842 17.9191 17.6107 17.9281 17.6341L18.472 19.1716C18.5074 19.2742 18.5426 19.3827 18.5803 19.4714C18.6164 19.5539 18.6784 19.5887 18.7763 19.5887H18.794V19.6769C18.6609 19.6705 18.5276 19.6655 18.3863 19.6655C18.2415 19.6655 18.0933 19.6705 17.9428 19.6769V19.5887H17.9754C18.0428 19.5887 18.1588 19.5769 18.1588 19.5035C18.1588 19.4656 18.1321 19.3862 18.0991 19.2918L17.984 18.951H17.3134L17.2191 19.2565Z" fill="#231F20"/>
<path d="M17.6374 17.9582L17.6442 17.956L17.6374 17.9582ZM17.3868 18.7733H17.9041L17.647 17.9856L17.3868 18.7733ZM17.3516 18.7988L17.6343 17.9413H17.6442H17.6502V17.9543L17.6472 17.9551L17.6502 17.9543V17.9413H17.6591L17.9398 18.7988H17.3516ZM17.9556 19.6631C18.1016 19.658 18.2452 19.6523 18.3863 19.6523C18.5233 19.6523 18.6521 19.6581 18.7806 19.6631V19.6015H18.7762C18.6749 19.6022 18.6053 19.5626 18.569 19.4759C18.5306 19.3872 18.4946 19.2781 18.4598 19.1751L17.9158 17.6378C17.9069 17.6144 17.8984 17.588 17.8908 17.5672C17.8878 17.5643 17.8885 17.5643 17.8862 17.5643H17.8806C17.8746 17.5643 17.8711 17.5661 17.8634 17.568C17.8067 17.6048 17.6881 17.6627 17.6003 17.6856C17.5824 17.797 17.529 17.9439 17.4907 18.0527L17.0181 19.4015C16.9731 19.5293 16.8693 19.602 16.7493 19.6017H16.7444V19.6632C16.8458 19.6581 16.948 19.6524 17.0506 19.6524C17.1648 19.6524 17.2813 19.6582 17.3944 19.6632V19.6017H17.3754C17.279 19.6004 17.1445 19.5899 17.1411 19.4858C17.1414 19.4275 17.1777 19.3524 17.2065 19.253L17.2192 19.2567L17.2065 19.2527L17.3038 18.9385H17.9928L18.1111 19.2877C18.1443 19.3822 18.1711 19.4605 18.1711 19.5034C18.1668 19.5935 18.0424 19.6 17.9755 19.6017H17.9558V19.6631H17.9556ZM18.7928 19.6893C18.6602 19.6836 18.5269 19.6771 18.3863 19.6771C18.2415 19.6771 18.0942 19.6836 17.9434 19.6893L17.9298 19.69V19.6767V19.5751H17.9427H17.9754C18.0438 19.5751 18.1452 19.5598 18.1455 19.5031C18.1462 19.4697 18.1197 19.3891 18.0873 19.2956L17.9748 18.9631H17.3231L17.2313 19.2601C17.2015 19.3599 17.1657 19.4375 17.1662 19.4854C17.1672 19.5572 17.2776 19.5749 17.3755 19.5749H17.421V19.5882V19.6897L17.4076 19.689C17.2894 19.6833 17.1689 19.6768 17.0507 19.6768C16.9452 19.6768 16.8383 19.6833 16.7325 19.689L16.7188 19.6897V19.6764V19.5748H16.7314H16.7494C16.8592 19.5745 16.9511 19.5121 16.9937 19.3927L17.4668 18.0436C17.505 17.9349 17.5587 17.7886 17.5842 17.6712C17.6768 17.6399 17.7957 17.5807 17.8526 17.5452C17.8608 17.5423 17.869 17.5384 17.8809 17.5384C17.8881 17.538 17.904 17.5399 17.9136 17.5552C17.922 17.5793 17.9313 17.6056 17.9402 17.6293L18.4842 19.1666C18.519 19.2695 18.5542 19.378 18.593 19.4651C18.6273 19.5435 18.6815 19.5744 18.7764 19.5746H18.8062V19.588V19.6894L18.7928 19.6893Z" fill="#231F20"/>
<path d="M18.9237 17.772C18.7021 17.772 18.6932 17.8251 18.6487 18.0394H18.5598C18.5715 17.9572 18.5866 17.8749 18.5958 17.7897C18.6073 17.7071 18.6131 17.625 18.6131 17.54H18.6845C18.7077 17.6282 18.7817 17.625 18.8614 17.625H20.386C20.4654 17.625 20.5391 17.6221 20.5451 17.5339L20.6158 17.546C20.6048 17.625 20.5931 17.7045 20.5837 17.784C20.5772 17.8634 20.5772 17.9425 20.5772 18.0218L20.489 18.0545C20.4837 17.9458 20.4689 17.772 20.2706 17.772H19.7862V19.3356C19.7862 19.5623 19.8897 19.5884 20.0312 19.5884H20.0876V19.6767C19.9724 19.6767 19.7658 19.6653 19.6058 19.6653C19.429 19.6653 19.2215 19.6767 19.1064 19.6767V19.5884H19.1627C19.3255 19.5884 19.4078 19.5739 19.4078 19.3417V17.772H18.9237Z" fill="#231F20"/>
<path d="M20.0877 19.6893C19.9716 19.6893 19.7646 19.6777 19.6058 19.6777C19.4294 19.6777 19.2225 19.6893 19.1068 19.6893H19.0937V19.6769V19.5758H19.1068H19.1629C19.3259 19.572 19.3912 19.57 19.3951 19.3419L19.3948 17.7848H18.9238V17.7722V17.759H19.4208V19.3419C19.4208 19.5779 19.3252 19.6012 19.1628 19.6017H19.1192V19.6642C19.236 19.6633 19.4344 19.6525 19.6057 19.6525C19.7601 19.6525 19.9577 19.6633 20.0745 19.6642V19.6017H20.031C19.8887 19.6012 19.7736 19.5672 19.7733 19.3358V17.7589H20.2704C20.4689 17.7596 20.4948 17.9272 20.5004 18.0366L20.5646 18.0131C20.5646 17.9363 20.565 17.8595 20.571 17.7826C20.579 17.7069 20.5901 17.6316 20.601 17.5566L20.5564 17.5488C20.5429 17.6344 20.4594 17.6391 20.386 17.6378H18.8614H18.8463C18.7766 17.6385 18.7012 17.6345 18.6745 17.5523H18.6263C18.6256 17.6337 18.6197 17.7127 18.6082 17.791C18.6001 17.8721 18.5859 17.9499 18.5746 18.0273H18.638C18.6769 17.8222 18.7024 17.7557 18.9238 17.7589V17.772V17.7847C18.7047 17.7884 18.7096 17.8253 18.6613 18.0425L18.6592 18.0525H18.6488H18.5452L18.547 18.038C18.5594 17.9553 18.5739 17.8728 18.5825 17.7881C18.5946 17.706 18.6001 17.6244 18.6001 17.5402V17.5272H18.6132H18.6939L18.6964 17.5365C18.717 17.6105 18.7709 17.6111 18.8465 17.6125H18.8615H20.3861C20.4679 17.6112 20.5275 17.6101 20.5327 17.5334L20.5331 17.5193L20.5469 17.5221L20.6308 17.5352L20.6287 17.5481C20.6166 17.627 20.6053 17.7062 20.5965 17.7849C20.5904 17.8635 20.5904 17.9428 20.5904 18.0221V18.031L20.5818 18.0343L20.4772 18.0725L20.4768 18.0554C20.469 17.9448 20.4574 17.7849 20.2707 17.7849H19.799V19.3359C19.802 19.5576 19.8905 19.5732 20.0313 19.5759H20.1001V19.5887V19.6895H20.0877V19.6893Z" fill="#231F20"/>
<path d="M20.7251 19.5883H20.7665C20.873 19.5883 20.9849 19.5739 20.9849 19.4209V17.8811C20.9849 17.7279 20.8731 17.7133 20.7665 17.7133H20.7251V17.625C20.8405 17.625 21.0173 17.6368 21.162 17.6368C21.3101 17.6368 21.4874 17.625 21.6266 17.625V17.7133H21.5851C21.4783 17.7133 21.366 17.7279 21.366 17.8811V19.4209C21.366 19.5739 21.4783 19.5883 21.5851 19.5883H21.6266V19.6767C21.4846 19.6767 21.3072 19.6653 21.1596 19.6653C21.0145 19.6653 20.8405 19.6767 20.7252 19.6767V19.5883H20.7251Z" fill="#231F20"/>
<path d="M21.6131 19.664V19.6016H21.5851C21.479 19.6016 21.3536 19.5833 21.3536 19.4209V17.8811C21.3536 17.7186 21.479 17.7005 21.5851 17.7002H21.6131V17.6377C21.4768 17.6385 21.3058 17.6492 21.162 17.6492C21.0218 17.6492 20.8526 17.6385 20.738 17.6377V17.7002H20.7666C20.8716 17.7005 20.9975 17.7185 20.9978 17.8811V19.4209C20.9975 19.5833 20.8716 19.6016 20.7666 19.6016H20.738V19.664C20.8518 19.6627 21.019 19.6523 21.1596 19.6523C21.3027 19.6523 21.4737 19.6631 21.6131 19.664ZM21.6265 19.6893C21.4836 19.6893 21.3069 19.6771 21.1595 19.6771C21.0148 19.6771 20.8405 19.6893 20.7251 19.6893H20.7124V19.6769V19.5885V19.5758H20.7251H20.7666C20.8731 19.574 20.9713 19.5647 20.9719 19.4209V17.8811C20.9712 17.7375 20.8731 17.7279 20.7666 17.7261H20.7124V17.7134V17.6123H20.7251C20.8405 17.6123 21.0182 17.6238 21.162 17.6238C21.3093 17.6238 21.4865 17.6123 21.6266 17.6123H21.6389V17.6251V17.7261H21.6266H21.5852C21.4769 17.7279 21.3799 17.7375 21.3788 17.8811V19.4209C21.3799 19.5647 21.4769 19.574 21.5852 19.5758H21.6389V19.5885V19.6893H21.6265Z" fill="#231F20"/>
<path d="M22.8492 19.5915C23.4226 19.5915 23.5225 19.0886 23.5225 18.66C23.5225 18.2304 23.2896 17.7104 22.7989 17.7104C22.282 17.7104 22.1283 18.169 22.1283 18.5625C22.1283 19.0886 22.3708 19.5915 22.8492 19.5915ZM22.8045 17.5812C23.4344 17.5812 23.9364 17.9695 23.9364 18.5955C23.9364 19.2717 23.4489 19.721 22.8198 19.721C22.1931 19.721 21.7148 19.2977 21.7148 18.6658C21.7148 18.0546 22.1903 17.5812 22.8045 17.5812Z" fill="#231F20"/>
<path d="M22.1152 18.5625C22.1161 18.167 22.2713 17.6973 22.7987 17.6973C23.3004 17.6984 23.5344 18.228 23.5354 18.6599C23.5344 19.0885 23.4331 19.6035 22.8492 19.6035V19.5915V19.5787C23.4109 19.5782 23.5085 19.0886 23.5095 18.6601C23.5095 18.2343 23.279 17.7241 22.7987 17.7232C22.2919 17.7238 22.1422 18.1711 22.1408 18.5626C22.1411 19.0861 22.3814 19.5779 22.8492 19.5787V19.5915V19.6035C22.3588 19.6031 22.1161 19.0917 22.1152 18.5625ZM21.7014 18.6656C21.7027 18.0474 22.1836 17.5692 22.8042 17.5682V17.581V17.5939C22.1968 17.5939 21.7271 18.061 21.7264 18.6656C21.7276 19.2905 22.1991 19.7074 22.8196 19.7077C23.4423 19.7074 23.9228 19.2645 23.9236 18.595C23.9231 17.9768 23.4289 17.5944 22.8042 17.594V17.5811V17.5684C23.4385 17.5691 23.9477 17.9613 23.9487 18.595C23.948 19.2783 23.4547 19.7322 22.8196 19.7333C22.1878 19.7322 21.7027 19.3046 21.7014 18.6656Z" fill="#231F20"/>
<path d="M25.9271 19.0975L25.9332 19.0917V17.9899C25.9332 17.7486 25.7643 17.7134 25.6757 17.7134H25.6113V17.6252C25.7498 17.6252 25.886 17.637 26.0244 17.637C26.1459 17.637 26.267 17.6252 26.3882 17.6252V17.7134H26.3438C26.2199 17.7134 26.0805 17.7369 26.0805 18.0868V19.424C26.0805 19.527 26.0836 19.6299 26.0985 19.721H25.9862L24.4645 18.0336V19.2449C24.4645 19.5007 24.5148 19.5886 24.7419 19.5886H24.7926V19.6769C24.6655 19.6769 24.5387 19.6654 24.4116 19.6654C24.2786 19.6654 24.1426 19.6769 24.0095 19.6769V19.5886H24.0511C24.2552 19.5886 24.3168 19.4504 24.3168 19.2159V17.9775C24.3168 17.8131 24.1814 17.7134 24.0477 17.7134H24.0095V17.6252C24.1218 17.6252 24.237 17.637 24.3494 17.637C24.4379 17.637 24.5231 17.6252 24.6121 17.6252L25.9271 19.0975Z" fill="#231F20"/>
<path d="M25.9201 19.0917V19.0908L25.9179 19.0886L25.9201 19.0917ZM25.9271 19.0975L25.9364 19.089L25.9271 19.0975ZM25.9863 19.7077H26.0831C26.0706 19.6192 26.0678 19.5216 26.0678 19.4239V18.0866C26.0678 17.7332 26.2169 17.7012 26.3437 17.7002H26.3758V17.6377C26.2585 17.6385 26.1424 17.6492 26.0242 17.6492C25.8897 17.6492 25.7576 17.6385 25.6238 17.6377V17.7002H25.6758C25.7669 17.7011 25.9453 17.7411 25.9453 17.9897L25.9422 19.1008L25.9365 19.1065L25.9272 19.1162L24.6123 17.6377C24.525 17.6377 24.439 17.6492 24.3495 17.6492C24.2407 17.6492 24.1297 17.6385 24.0222 17.6377V17.7002H24.0481C24.187 17.7011 24.3297 17.8053 24.3297 17.9774V19.2156C24.3297 19.4509 24.2638 19.601 24.0511 19.6019L24.0222 19.6016V19.6641C24.1504 19.6633 24.2819 19.6523 24.4117 19.6523C24.535 19.6523 24.6574 19.6632 24.7798 19.6641V19.602H24.7418C24.5099 19.6017 24.4518 19.5008 24.4518 19.2449V18.0007L25.9863 19.7077ZM26.0987 19.7333L25.9765 19.7292L24.4772 18.0668V19.2447C24.4806 19.5005 24.5198 19.5725 24.7415 19.5751H24.8052V19.5884V19.6891H24.7927C24.6647 19.6891 24.5379 19.6773 24.4115 19.6773C24.2791 19.6773 24.1433 19.6891 24.0092 19.6891H23.9971V19.6766V19.575H24.0092H24.0509C24.2455 19.5744 24.3017 19.4496 24.3039 19.2155V17.9772C24.3038 17.8206 24.1748 17.7259 24.0478 17.7259H23.9971V17.7131V17.6121H24.0092C24.1225 17.6121 24.2376 17.6236 24.3492 17.6236C24.4369 17.6236 24.5218 17.6121 24.622 17.6166L25.9201 19.0707V17.9897C25.9191 17.7563 25.7618 17.7278 25.6755 17.726H25.5976V17.7133V17.6122H25.6111C25.7499 17.6122 25.8862 17.6237 26.0238 17.6237C26.1446 17.6237 26.2653 17.6122 26.3881 17.6122H26.4005V17.625V17.726H26.3881H26.3435C26.2217 17.7292 26.096 17.7403 26.0935 18.0865V19.4237C26.0935 19.5266 26.0958 19.6292 26.1102 19.7188L26.1127 19.7332H26.0987V19.7333Z" fill="#231F20"/>
<path d="M27.2949 17.9544H27.289L27.0136 18.7863H27.5669L27.2949 17.9544ZM26.8629 19.2565C26.8339 19.3562 26.7982 19.4333 26.7982 19.4854C26.7982 19.574 26.9226 19.5886 27.0195 19.5886H27.0525V19.6768C26.9342 19.6704 26.813 19.6654 26.6947 19.6654C26.5883 19.6654 26.4821 19.6704 26.3762 19.6768V19.5886H26.3931C26.5089 19.5886 26.6067 19.5208 26.6499 19.3973L27.1236 18.0487C27.1618 17.9397 27.2153 17.7929 27.2323 17.6839C27.3272 17.6517 27.4451 17.5932 27.5021 17.5576C27.5103 17.5547 27.5163 17.5516 27.5255 17.5516C27.534 17.5516 27.5397 17.5516 27.5457 17.5609C27.5546 17.5842 27.5636 17.6107 27.5725 17.6341L28.116 19.1716C28.1512 19.2742 28.1869 19.3827 28.2255 19.4714C28.2609 19.5539 28.3229 19.5887 28.4203 19.5887H28.4385V19.6769C28.3054 19.6705 28.1721 19.6655 28.0304 19.6655C27.8859 19.6655 27.7379 19.6705 27.5871 19.6769V19.5887H27.6199C27.6873 19.5887 27.8033 19.5769 27.8033 19.5035C27.8033 19.4656 27.7768 19.3862 27.7438 19.2918L27.6286 18.951H26.958L26.8629 19.2565Z" fill="#231F20"/>
<path d="M27.2825 17.9582L27.2883 17.956L27.2825 17.9582ZM27.0315 18.7733H27.5483L27.2913 17.9861L27.0315 18.7733ZM26.9958 18.7988L27.2796 17.9414H27.2883H27.2948V17.9545L27.2914 17.9553L27.2948 17.9545V17.9414H27.3037L27.5831 18.7988H26.9958ZM27.5994 19.6634C27.7456 19.6581 27.8894 19.6523 28.0302 19.6523C28.1674 19.6523 28.2959 19.6581 28.425 19.6631L28.4247 19.6016H28.4197C28.3196 19.6018 28.2499 19.5626 28.213 19.4759C28.1741 19.3872 28.139 19.2781 28.1036 19.1755L27.56 17.6378C27.5512 17.6144 27.5418 17.588 27.5349 17.5678C27.5324 17.5643 27.5326 17.5643 27.5308 17.5643H27.525C27.5186 17.5643 27.5152 17.5663 27.5083 17.5683C27.4504 17.6043 27.3322 17.6632 27.245 17.6856C27.2266 17.797 27.1731 17.9437 27.1351 18.0528L26.6619 19.4015C26.6171 19.5293 26.5138 19.602 26.393 19.6017H26.3886V19.6633C26.4904 19.6581 26.5918 19.6524 26.6947 19.6524C26.8091 19.6524 26.926 19.6583 27.0395 19.6633V19.6017H27.0195C26.9234 19.6005 26.7887 19.5903 26.7851 19.4855C26.7858 19.4276 26.8222 19.3526 26.8512 19.2529L26.863 19.2566L26.8512 19.2526L26.9483 18.9384H27.6369L27.7556 19.2875C27.7882 19.3821 27.8151 19.4604 27.8151 19.5033C27.8109 19.5934 27.6866 19.5999 27.6196 19.6016H27.5997V19.6634H27.5994ZM28.4369 19.6893C28.3039 19.6841 28.1712 19.6775 28.0303 19.6775C27.8862 19.6775 27.7381 19.6841 27.5876 19.6893L27.5745 19.69V19.6767V19.5756H27.5871H27.6195C27.688 19.5756 27.7899 19.5598 27.7899 19.5031C27.7907 19.4697 27.764 19.3894 27.7308 19.2956L27.6188 18.9631H26.9666L26.8753 19.2601C26.8456 19.3607 26.8106 19.4375 26.8109 19.4852C26.8109 19.5573 26.9217 19.5755 27.0194 19.5755H27.0645V19.5882V19.6899L27.0512 19.6892C26.9333 19.6839 26.8122 19.6774 26.6945 19.6774C26.5888 19.6774 26.4827 19.6839 26.3761 19.6892L26.3633 19.6899V19.6766V19.5755H26.3761H26.393C26.5031 19.5749 26.5952 19.5121 26.6385 19.393L27.1111 18.0439C27.149 17.9352 27.2022 17.7889 27.2283 17.6719C27.3211 17.6399 27.4397 17.581 27.4971 17.5455C27.5048 17.5426 27.513 17.5391 27.5251 17.5391C27.5326 17.5383 27.5481 17.5403 27.5572 17.5563C27.5661 17.5794 27.5749 17.6062 27.5845 17.6299L28.1278 19.1672C28.1634 19.2701 28.1986 19.3786 28.237 19.4662C28.2718 19.544 28.3252 19.5749 28.4197 19.5758H28.4502V19.5885V19.6902L28.4369 19.6893Z" fill="#231F20"/>
<path d="M29.1823 19.3885C29.1823 19.5068 29.2644 19.5414 29.3592 19.5538C29.4801 19.5625 29.6132 19.5625 29.7495 19.5475C29.8734 19.5327 29.9797 19.4626 30.0328 19.3885C30.0798 19.324 30.1064 19.2417 30.1245 19.1772H30.2101C30.1775 19.3447 30.1362 19.5096 30.1008 19.6769C29.8415 19.6769 29.5806 19.6655 29.3211 19.6655C29.0609 19.6655 28.801 19.6769 28.5413 19.6769V19.5886H28.5821C28.6887 19.5886 28.8044 19.5742 28.8044 19.3918V17.8813C28.8044 17.7281 28.6887 17.7134 28.5821 17.7134H28.5413V17.6252C28.6975 17.6252 28.8515 17.637 29.0078 17.637C29.1588 17.637 29.3062 17.6252 29.4573 17.6252V17.7134H29.383C29.2707 17.7134 29.1826 17.7166 29.1826 17.8723V19.3885H29.1823Z" fill="#231F20"/>
<path d="M30.0902 19.6639C30.1243 19.5042 30.163 19.3482 30.1948 19.1896H30.1339C30.1158 19.2536 30.0895 19.3324 30.0432 19.3964C29.9879 19.4725 29.8786 19.5443 29.7504 19.5602C29.673 19.568 29.5963 19.572 29.5239 19.572C29.4667 19.572 29.4115 19.5695 29.3577 19.5658C29.2615 19.5552 29.1687 19.5143 29.1687 19.3885V17.8721C29.1687 17.7086 29.2727 17.7002 29.3829 17.7002H29.4437V17.6377C29.2982 17.6385 29.1545 17.6494 29.0075 17.6494C28.8547 17.6494 28.7051 17.6385 28.5539 17.6377V17.7002H28.582C28.6874 17.7002 28.8164 17.7185 28.8164 17.8806V19.3916C28.8164 19.5819 28.6879 19.6016 28.582 19.6016H28.5539V19.6639C28.809 19.6634 29.0645 19.6523 29.321 19.6523C29.5779 19.6523 29.8343 19.6634 30.0902 19.6639ZM30.1009 19.6893C29.8403 19.6893 29.5802 19.6775 29.321 19.6775C29.0611 19.6775 28.8011 19.6893 28.5405 19.6893H28.5281V19.6768V19.5758H28.5405H28.582C28.6888 19.5731 28.7902 19.5658 28.7915 19.3918V17.8807C28.7902 17.7376 28.6892 17.7281 28.582 17.7263H28.5282V17.7135V17.6124H28.5406C28.698 17.6124 28.8518 17.6239 29.0076 17.6239C29.158 17.6239 29.3051 17.6124 29.4572 17.6124H29.469V17.6252V17.7263H29.4572H29.3829C29.2684 17.7292 29.1971 17.724 29.1946 17.8722V19.3886C29.1953 19.4985 29.2677 19.5279 29.36 19.541C29.412 19.5446 29.4671 19.5465 29.5238 19.5465C29.5961 19.5465 29.6711 19.5432 29.7475 19.5351C29.8679 19.5209 29.9714 19.4517 30.0224 19.3817C30.0681 19.3187 30.0939 19.2383 30.1118 19.1743L30.1141 19.1645H30.1242H30.2255L30.2228 19.1799C30.1894 19.348 30.1488 19.512 30.113 19.6795L30.1106 19.6893H30.1009Z" fill="#231F20"/>
<path d="M30.1241 17.8519H30.1607C30.2009 17.8519 30.2196 17.8218 30.2196 17.7729C30.2196 17.7236 30.191 17.7063 30.1588 17.7063H30.1241V17.8519ZM30.0193 18.0151V18.0001C30.0573 17.9947 30.0644 17.9957 30.0644 17.9725V17.7432C30.0644 17.7109 30.0612 17.6997 30.0205 17.7016V17.6858H30.1798C30.2346 17.6858 30.285 17.7119 30.285 17.7682C30.285 17.814 30.2545 17.8483 30.2115 17.8615L30.2628 17.9324C30.2866 17.9645 30.3138 17.9948 30.3312 18.0055V18.0154H30.2707C30.2416 18.0154 30.2159 17.9546 30.1589 17.8731H30.1244V17.9757C30.1244 17.9959 30.1316 17.995 30.1698 18.0004V18.0154H30.0193V18.0151ZM30.1738 18.103C30.3133 18.103 30.4199 17.985 30.4199 17.8519C30.4199 17.7187 30.3146 17.5997 30.1738 17.5997C30.0338 17.5997 29.9273 17.7185 29.9273 17.8519C29.9273 17.985 30.0338 18.103 30.1738 18.103ZM30.1738 17.5417C30.3521 17.5417 30.485 17.6779 30.485 17.8519C30.485 18.0259 30.3519 18.1605 30.1738 18.1605C29.996 18.1605 29.8628 18.0258 29.8628 17.8519C29.8628 17.6779 29.996 17.5417 30.1738 17.5417Z" fill="#231F20"/>
<path d="M16.725 12.2265C19.4884 12.2265 21.7285 9.99782 21.7285 7.24862C21.7285 4.49942 19.4884 2.27075 16.725 2.27075C13.9616 2.27075 11.7214 4.49942 11.7214 7.24862C11.7214 9.99782 13.9616 12.2265 16.725 12.2265Z" fill="white"/>
<path d="M16.7319 12.3154C13.8644 12.329 11.5044 10.0178 11.5044 7.20457C11.5044 4.13001 13.8644 2.00335 16.7319 2.00391H18.0756C20.909 2.00335 23.4951 4.12904 23.4951 7.20457C23.4951 10.017 20.909 12.3154 18.0756 12.3154H16.7319ZM16.7435 2.43024C14.1231 2.43121 12.0001 4.54372 11.9997 7.15064C12.0001 9.75728 14.1231 11.8694 16.7435 11.8699C19.3638 11.8694 21.4872 9.75728 21.4879 7.15064C21.4874 4.54372 19.3638 2.43121 16.7435 2.43024ZM15.6665 9.94182V4.35863C14.5389 4.79065 13.7392 5.87623 13.7362 7.1505C13.7392 8.42464 14.5389 9.51036 15.6665 9.94182ZM19.751 7.15064C19.749 5.87595 18.9481 4.78871 17.8194 4.35822V9.94307C18.948 9.51174 19.749 8.42561 19.751 7.15064Z" fill="#004A97"/>
</svg>
