<svg width="35" height="23" viewBox="0 0 35 23" fill="none" xmlns="http://www.w3.org/2000/svg">
<g clip-path="url(#clip0)">
<path d="M-0.168457 -0.16655L35.1639 -0.168579V23.2358L-0.16344 23.2365L-0.168457 -0.16655Z" fill="white"/>
<path d="M35.0391 12.8478C35.0391 12.8478 25.3843 19.9336 7.7019 23.105H35.0391V12.8478Z" fill="#F48120"/>
<path d="M2.81817 6.94092H1.34375V12.2968H2.81036C3.59022 12.2968 4.15337 12.1055 4.64767 11.6785C5.23507 11.1729 5.58249 10.4108 5.58249 9.62256C5.58263 8.04207 4.44714 6.94092 2.81817 6.94092ZM3.99157 10.9643C3.67592 11.2607 3.26607 11.39 2.61707 11.39H2.34755V7.84842H2.61707C3.26607 7.84842 3.6599 7.96916 3.99157 8.28152C4.33899 8.60316 4.54789 9.10177 4.54789 9.61473C4.54789 10.129 4.33899 10.6428 3.99157 10.9643Z" fill="#231F20"/>
<path d="M7.04942 6.94092H6.04492V12.2968H7.04942V6.94092Z" fill="#231F20"/>
<path d="M9.50544 8.99631C8.90271 8.7644 8.72572 8.61133 8.72572 8.32202C8.72572 7.98459 9.04109 7.72832 9.47394 7.72832C9.77496 7.72832 10.0222 7.85689 10.2839 8.162L10.8094 7.44626C10.3775 7.05331 9.8608 6.85242 9.29626 6.85242C8.38513 6.85242 7.69015 7.51047 7.69015 8.3871C7.69015 9.12502 8.01374 9.50275 8.95706 9.85584C9.35033 10.0001 9.55045 10.0962 9.65149 10.1608C9.85216 10.2971 9.95264 10.4901 9.95264 10.7149C9.95264 11.1489 9.62097 11.4704 9.17279 11.4704C8.69367 11.4704 8.30779 11.2212 8.07659 10.7561L7.42773 11.406C7.89055 12.1125 8.44631 12.4257 9.21055 12.4257C10.2544 12.4257 10.9865 11.7039 10.9865 10.6671C10.9865 9.81612 10.648 9.43086 9.50544 8.99631Z" fill="#231F20"/>
<path d="M11.3035 9.62254C11.3035 11.1968 12.4921 12.4175 14.0215 12.4175C14.454 12.4175 14.8242 12.3291 15.2809 12.1055V10.8756C14.8793 11.2936 14.5236 11.4622 14.0683 11.4622C13.0567 11.4622 12.3388 10.6993 12.3388 9.61472C12.3388 8.58647 13.0795 7.77521 14.0217 7.77521C14.5008 7.77521 14.8634 7.95306 15.281 8.37789V7.14861C14.8401 6.91597 14.4776 6.81958 14.0454 6.81958C12.5234 6.81987 11.3035 8.06539 11.3035 9.62254Z" fill="#231F20"/>
<path d="M23.2447 10.5385L21.8715 6.94092H20.7742L22.9596 12.4342H23.5L25.7246 6.94092H24.6358L23.2447 10.5385Z" fill="#231F20"/>
<path d="M26.179 12.2968H29.0276V11.3902H27.1826V9.94448H28.9596V9.03727H27.1826V7.84842H29.0276V6.94092H26.179V12.2968Z" fill="#231F20"/>
<path d="M33.0044 8.52213C33.0044 7.5194 32.3403 6.94092 31.182 6.94092H29.6926V12.2968H30.6959V10.1452H30.8269L32.2171 12.2968H33.4524L31.8314 10.0404C32.5878 9.88042 33.0044 9.34223 33.0044 8.52213ZM30.9894 9.40674H30.696V7.7845H31.0052C31.6308 7.7845 31.9709 8.05715 31.9709 8.57837C31.9709 9.11684 31.6308 9.40674 30.9894 9.40674Z" fill="#231F20"/>
<path d="M18.348 12.4867C19.8609 12.4867 21.0874 11.2111 21.0874 9.63753C21.0874 8.06396 19.8609 6.78833 18.348 6.78833C16.8351 6.78833 15.6086 8.06396 15.6086 9.63753C15.6086 11.2111 16.8351 12.4867 18.348 12.4867Z" fill="url(#paint0_linear)"/>
<path opacity="0.65" d="M18.348 12.4867C19.8609 12.4867 21.0874 11.2111 21.0874 9.63753C21.0874 8.06396 19.8609 6.78833 18.348 6.78833C16.8351 6.78833 15.6086 8.06396 15.6086 9.63753C15.6086 11.2111 16.8351 12.4867 18.348 12.4867Z" fill="url(#paint1_linear)"/>
<path d="M33.6456 7.14219C33.6456 7.04826 33.5835 6.99695 33.4742 6.99695H33.3289V7.46774H33.4369V7.2851L33.5635 7.46774H33.6954L33.5465 7.27365C33.6105 7.25582 33.6456 7.20756 33.6456 7.14219ZM33.4553 7.20654H33.437V7.08348H33.4564C33.5097 7.08348 33.5376 7.10348 33.5376 7.14407C33.5376 7.18552 33.5095 7.20654 33.4553 7.20654Z" fill="#231F20"/>
<path d="M33.4961 6.82117C33.2763 6.82117 33.1018 7.00351 33.1018 7.23151C33.1018 7.45936 33.2782 7.642 33.4961 7.642C33.7101 7.642 33.8856 7.45734 33.8856 7.23151C33.8856 7.0067 33.7101 6.82117 33.4961 6.82117ZM33.4944 7.56865C33.3214 7.56865 33.18 7.41893 33.18 7.23209C33.18 7.04467 33.3196 6.89509 33.4944 6.89509C33.6665 6.89509 33.8068 7.04815 33.8068 7.23209C33.8068 7.41733 33.6666 7.56865 33.4944 7.56865Z" fill="#231F20"/>
</g>
<defs>
<linearGradient id="paint0_linear" x1="19.7502" y1="11.9209" x2="17.7458" y2="8.90368" gradientUnits="userSpaceOnUse">
<stop stop-color="#F89F20"/>
<stop offset="0.2502" stop-color="#F79A20"/>
<stop offset="0.5331" stop-color="#F68D20"/>
<stop offset="0.6196" stop-color="#F58720"/>
<stop offset="0.7232" stop-color="#F48120"/>
<stop offset="1" stop-color="#F37521"/>
</linearGradient>
<linearGradient id="paint1_linear" x1="19.4506" y1="11.879" x2="16.5018" y2="6.3375" gradientUnits="userSpaceOnUse">
<stop stop-color="#F58720" stop-opacity="0"/>
<stop offset="0.3587" stop-color="#E16F27" stop-opacity="0.2704"/>
<stop offset="0.703" stop-color="#D4602C" stop-opacity="0.5299"/>
<stop offset="0.9816" stop-color="#D05B2E" stop-opacity="0.74"/>
</linearGradient>
<clipPath id="clip0">
<rect width="35" height="23" fill="white"/>
</clipPath>
</defs>
</svg>
