<svg width="35" height="23" viewBox="0 0 35 23" fill="none" xmlns="http://www.w3.org/2000/svg">
<g clip-path="url(#clip0)">
<path opacity="0.5" d="M0.599139 22.9999H34.4009C34.5594 22.9986 34.7112 22.9212 34.8233 22.7846C34.9354 22.6481 34.9989 22.4632 35 22.27V0.729785C34.9989 0.536619 34.9354 0.351742 34.8233 0.21515C34.7112 0.0785568 34.5594 0.00122971 34.4009 -0.000104053H0.599139C0.520306 -0.000781207 0.442148 0.0176356 0.369208 0.0540762C0.296268 0.0905167 0.23 0.144254 0.174255 0.212166C0.11851 0.280078 0.0744002 0.36081 0.0444882 0.44967C0.0145763 0.53853 -0.000541047 0.633746 1.47891e-05 0.729785V22.287C0.000924287 22.3817 0.0171432 22.4753 0.0477452 22.5624C0.0783473 22.6495 0.122733 22.7284 0.178368 22.7946C0.234003 22.8608 0.299797 22.913 0.371994 22.9482C0.44419 22.9835 0.521374 23.001 0.599139 22.9999Z" fill="#7F7F7F"/>
<path d="M0.627188 0.271606H34.415C34.5185 0.271606 34.6177 0.32168 34.6909 0.410812C34.764 0.499943 34.8051 0.620832 34.8051 0.746883V22.2532C34.8051 22.3156 34.7951 22.3774 34.7754 22.435C34.7558 22.4927 34.7271 22.5451 34.6909 22.5892C34.6546 22.6334 34.6116 22.6684 34.5643 22.6923C34.517 22.7161 34.4662 22.7284 34.415 22.7284H0.627188C0.575956 22.7284 0.525225 22.7161 0.477893 22.6923C0.43056 22.6684 0.387553 22.6334 0.351326 22.5892C0.3151 22.5451 0.286363 22.4927 0.266757 22.435C0.247151 22.3774 0.237061 22.3156 0.237061 22.2532V0.746883C0.237061 0.620832 0.278163 0.499943 0.351326 0.410812C0.424489 0.32168 0.52372 0.271606 0.627188 0.271606Z" fill="#7F7F7F"/>
<path d="M34.359 22.4738H0.654827C0.629055 22.4745 0.603434 22.4688 0.57951 22.4571C0.555585 22.4454 0.533854 22.4279 0.515625 22.4057C0.497397 22.3835 0.48305 22.357 0.473449 22.3279C0.463848 22.2987 0.459193 22.2675 0.459764 22.2361V0.780786C0.459193 0.749389 0.463848 0.718176 0.473449 0.68903C0.48305 0.659884 0.497397 0.633409 0.515625 0.611202C0.533854 0.588995 0.555585 0.571516 0.57951 0.55982C0.603434 0.548124 0.629055 0.542452 0.654827 0.543148H34.359C34.3848 0.542452 34.4104 0.548124 34.4344 0.55982C34.4583 0.571516 34.48 0.588995 34.4982 0.611202C34.5165 0.633409 34.5308 0.659884 34.5404 0.68903C34.55 0.718176 34.5547 0.749389 34.5541 0.780786V22.2192C34.5562 22.2518 34.5528 22.2847 34.5439 22.3156C34.535 22.3465 34.521 22.3749 34.5026 22.3988C34.4843 22.4228 34.462 22.4418 34.4373 22.4547C34.4126 22.4676 34.3859 22.4741 34.359 22.4738Z" fill="white"/>
<path d="M5.76831 14.8354V8.77563L9.01473 11.797L5.76831 14.8354Z" fill="#FBBC05"/>
<path d="M5.76831 8.77562L9.01473 11.797L10.3523 10.3712L14.9363 9.47157V6.21252H5.76831V8.77562Z" fill="#EA4335"/>
<path d="M5.76831 14.8361L11.4948 9.48926L12.9996 9.7269L14.9224 6.23022V17.3992H5.76831V14.8361Z" fill="#34A853"/>
<path d="M14.9362 17.3815L9.01461 11.797L8.24829 11.1011L14.9362 8.77563V17.3815Z" fill="#4285F4"/>
<path d="M19.0605 12.4591V14.5808H18.2942V8.99634H20.0916C20.5932 8.99634 20.9972 9.14911 21.2759 9.47161C21.4196 9.62904 21.533 9.82336 21.6076 10.0406C21.6823 10.2578 21.7165 10.4924 21.7078 10.7277C21.7179 10.9632 21.6844 11.1984 21.6096 11.4158C21.5348 11.6333 21.4207 11.8274 21.2759 11.9838C20.9833 12.3063 20.5932 12.4591 20.0916 12.4591H19.0605ZM19.0605 11.7122H20.0916C20.208 11.724 20.3253 11.706 20.4357 11.6592C20.5461 11.6124 20.6472 11.538 20.7325 11.4406C20.8724 11.2495 20.9471 11.0006 20.9415 10.7447C20.9497 10.6077 20.933 10.4701 20.8928 10.3418C20.8526 10.2134 20.7897 10.0974 20.7087 10.0019C20.6276 9.90639 20.5303 9.83372 20.4237 9.78902C20.3171 9.74432 20.2037 9.72868 20.0916 9.7432H19.0605V11.7122Z" fill="#757575"/>
<path d="M24.3969 14.5809C24.3672 14.4814 24.3439 14.3792 24.3272 14.2754L24.2854 13.9698C24.1748 14.1666 24.0326 14.3341 23.8674 14.4621C23.6979 14.5979 23.499 14.6688 23.2962 14.6658C22.9966 14.6848 22.7024 14.5633 22.4741 14.3263C22.377 14.2063 22.3019 14.0625 22.2538 13.9045C22.2058 13.7465 22.1859 13.5778 22.1954 13.4097C22.1879 13.2261 22.2199 13.0433 22.2884 12.8795C22.3568 12.7158 22.4593 12.5767 22.5856 12.4761C22.9159 12.2301 23.2997 12.1118 23.6863 12.1366H24.2854V11.7632C24.2893 11.6701 24.2778 11.577 24.2514 11.4895C24.2251 11.402 24.1845 11.3219 24.1322 11.254C24.0085 11.1248 23.849 11.058 23.6863 11.0672C23.5367 11.0579 23.389 11.1119 23.2683 11.22C23.2208 11.2674 23.1824 11.3269 23.1559 11.3944C23.1294 11.4619 23.1155 11.5356 23.115 11.6104H22.3766V11.5934C22.3749 11.4242 22.4071 11.257 22.4702 11.1062C22.5333 10.9554 22.6255 10.8256 22.7388 10.7278C23.026 10.4617 23.3818 10.3292 23.742 10.3543C24.0895 10.3281 24.4325 10.4613 24.7034 10.7278C24.9542 10.9654 25.0657 11.3219 25.0657 11.7802V13.6303C25.0675 13.7949 25.0769 13.9593 25.0936 14.1226C25.1129 14.2791 25.1456 14.4327 25.1911 14.5809H24.3969ZM23.4494 13.9189C23.6312 13.9254 23.8106 13.8663 23.965 13.7492C24.0984 13.654 24.2053 13.512 24.2715 13.3418V12.7307H23.6584C23.4674 12.7171 23.2789 12.7896 23.129 12.9344C23.0696 12.991 23.0212 13.0631 22.9875 13.1453C22.9538 13.2275 22.9355 13.3178 22.9339 13.4097C22.9309 13.4793 22.9407 13.5489 22.9623 13.6135C22.984 13.678 23.0171 13.736 23.0593 13.7831C23.1758 13.8734 23.3113 13.9206 23.4494 13.9189Z" fill="#757575"/>
<path d="M26.9327 12.9173L27.0024 13.3247H27.0163L27.7687 10.4221H28.6047L27.1975 15.2088C27.1143 15.4859 26.9864 15.7399 26.8213 15.9557C26.7293 16.0635 26.6197 16.1464 26.4997 16.199C26.3797 16.2517 26.2518 16.2729 26.1246 16.2612C26.0547 16.2635 25.9847 16.2578 25.9156 16.2443L25.7066 16.1933L25.7902 15.4634C25.8279 15.4617 25.8655 15.4674 25.9017 15.4804C25.9385 15.489 25.9763 15.489 26.0132 15.4804C26.0758 15.4845 26.1383 15.4714 26.1962 15.442C26.2541 15.4126 26.3058 15.3677 26.3475 15.3107C26.4331 15.188 26.5035 15.0508 26.5565 14.9033L26.6819 14.5299L25.4419 10.4221H26.2779L26.9327 12.9173Z" fill="#757575"/>
</g>
<defs>
<clipPath id="clip0">
<rect width="35" height="23" fill="white"/>
</clipPath>
</defs>
</svg>
