<svg width="35" height="22" viewBox="0 0 35 22" fill="none" xmlns="http://www.w3.org/2000/svg">
<g clip-path="url(#clip0)">
<path d="M35 0H0V22H35V0Z" fill="#034693"/>
<path d="M39.4438 -3.14282V31.7045H4.41675C4.41675 12.4589 19.1375 -3.14282 39.4438 -3.14282Z" fill="url(#paint0_linear)"/>
<path d="M5.33643 31.3522C5.33643 12.1067 21.0192 -3.49512 40.363 -3.49512V31.3522H5.33643Z" fill="url(#paint1_radial)"/>
<path d="M28.2202 15.8981C28.2202 17.7304 26.7269 19.2162 24.885 19.2162H6.77979V6.10184C6.77979 4.26938 8.27302 2.78381 10.1152 2.78381H28.2202V15.8981Z" fill="white"/>
<path d="M22.3171 12.5382H23.6961C23.7394 12.5382 23.8214 12.5314 23.8605 12.5228C24.1253 12.4658 24.3456 12.2319 24.3456 11.9136C24.3456 11.595 24.1252 11.3606 23.8605 11.3037C23.8215 11.2953 23.7394 11.2883 23.6961 11.2883H22.3171V12.5382Z" fill="url(#paint2_linear)"/>
<path d="M23.5349 3.88977C22.2192 3.88977 21.1526 4.95095 21.1526 6.25961V8.72123H24.5235C24.6017 8.72123 24.6973 8.72664 24.7568 8.72969C25.5197 8.76781 26.0823 9.15768 26.0823 9.83426C26.0823 10.3662 25.6978 10.8206 24.9979 10.9229V10.9497C25.7711 11.003 26.3629 11.4262 26.3629 12.0932C26.3629 12.8145 25.7132 13.2785 24.8473 13.2785H21.1526V18.1099H24.6467C25.9624 18.1099 27.0289 17.0487 27.0289 15.7399V3.88977H23.5349Z" fill="url(#paint3_linear)"/>
<path d="M24.1823 10.0059C24.1823 9.69281 23.9619 9.4829 23.7026 9.43923C23.6784 9.43507 23.6125 9.42883 23.567 9.42883H22.3171V10.5828H23.567C23.6125 10.5828 23.6785 10.5762 23.7026 10.5722C23.962 10.5284 24.1823 10.3188 24.1823 10.0059Z" fill="url(#paint4_linear)"/>
<path d="M10.3532 3.88977C9.03736 3.88977 7.97084 4.95095 7.97084 6.25961V12.1126C8.63893 12.4347 9.32917 12.6444 10.0317 12.6444C10.8553 12.6444 11.3078 12.1443 11.3078 11.4711V8.72151H13.3566V11.4712C13.3566 12.5467 12.693 13.4093 10.4159 13.4093C9.04544 13.4093 7.9707 13.1153 7.9707 13.1153V18.1101H11.465C12.7807 18.1101 13.8473 17.0489 13.8473 15.7401V3.88977H10.3532Z" fill="url(#paint5_linear)"/>
<path d="M16.944 3.88977C15.6283 3.88977 14.5618 4.95095 14.5618 6.25961V9.36246C15.1653 8.8474 16.2091 8.52547 17.905 8.60144C18.8128 8.64165 19.7755 8.88386 19.7755 8.88386V9.88736C19.2937 9.64446 18.7159 9.41944 17.9715 9.36329C16.6845 9.26652 15.9099 9.89235 15.9099 11C15.9099 12.1073 16.6845 12.733 17.9715 12.6358C18.7159 12.5802 19.3014 12.3493 19.7755 12.1125V13.1154C19.7755 13.1154 18.8128 13.3575 17.905 13.3985C16.2091 13.4744 15.1653 13.1526 14.5618 12.6375V18.1099H18.0558C19.3713 18.1099 20.438 17.0487 20.438 15.7399V3.88977H16.944Z" fill="url(#paint6_linear)"/>
</g>
<defs>
<linearGradient id="paint0_linear" x1="21.9302" y1="31.8422" x2="21.9302" y2="-3.1096" gradientUnits="userSpaceOnUse">
<stop stop-color="#006DB7"/>
<stop offset="0.3" stop-color="#0071BA"/>
<stop offset="0.4064" stop-color="#1A85C6"/>
<stop offset="0.5822" stop-color="#40A0D7"/>
<stop offset="0.7454" stop-color="#5BB4E4"/>
<stop offset="0.8897" stop-color="#6BC1EB"/>
<stop offset="1" stop-color="#71C5EE"/>
</linearGradient>
<radialGradient id="paint1_radial" cx="0" cy="0" r="1" gradientUnits="userSpaceOnUse" gradientTransform="translate(40.4588 31.4393) scale(35.0399 34.8601)">
<stop offset="0.9" stop-color="#034693"/>
<stop offset="1" stop-color="#0071BB"/>
</radialGradient>
<linearGradient id="paint2_linear" x1="21.1527" y1="11.9133" x2="27.0442" y2="11.9133" gradientUnits="userSpaceOnUse">
<stop stop-color="#007F49"/>
<stop offset="0.2883" stop-color="#209248"/>
<stop offset="0.7632" stop-color="#50AF47"/>
<stop offset="1" stop-color="#62BA46"/>
</linearGradient>
<linearGradient id="paint3_linear" x1="21.1527" y1="10.9999" x2="27.0443" y2="10.9999" gradientUnits="userSpaceOnUse">
<stop stop-color="#007F49"/>
<stop offset="0.2883" stop-color="#209248"/>
<stop offset="0.7632" stop-color="#50AF47"/>
<stop offset="1" stop-color="#62BA46"/>
</linearGradient>
<linearGradient id="paint4_linear" x1="21.1526" y1="10.0057" x2="27.0438" y2="10.0057" gradientUnits="userSpaceOnUse">
<stop stop-color="#007F49"/>
<stop offset="0.2883" stop-color="#209248"/>
<stop offset="0.7632" stop-color="#50AF47"/>
<stop offset="1" stop-color="#62BA46"/>
</linearGradient>
<linearGradient id="paint5_linear" x1="7.96331" y1="10.9999" x2="13.9459" y2="10.9999" gradientUnits="userSpaceOnUse">
<stop stop-color="#333377"/>
<stop offset="0.0714" stop-color="#2F397D"/>
<stop offset="0.6913" stop-color="#0D66AD"/>
<stop offset="1" stop-color="#0077BF"/>
</linearGradient>
<linearGradient id="paint6_linear" x1="14.5265" y1="10.9999" x2="20.3369" y2="10.9999" gradientUnits="userSpaceOnUse">
<stop stop-color="#743237"/>
<stop offset="0.4006" stop-color="#AA263E"/>
<stop offset="0.8011" stop-color="#DA1C44"/>
<stop offset="1" stop-color="#EC1846"/>
</linearGradient>
<clipPath id="clip0">
<rect width="35" height="22" fill="white"/>
</clipPath>
</defs>
</svg>
