<svg width="35" height="23" viewBox="0 0 35 23" fill="none" xmlns="http://www.w3.org/2000/svg">
<path d="M33.8149 23H1.18511C0.533327 23 0 22.4453 0 21.7674V1.23262C0 0.554708 0.533327 0 1.18511 0H33.8149C34.4667 0 35 0.554708 35 1.23262V21.7674C35 22.4453 34.4667 23 33.8149 23Z" fill="#010101"/>
<path d="M9.82317 21.0825V19.782C9.82317 19.2938 9.54069 18.9697 9.05878 18.9654C8.80543 18.961 8.54371 19.0431 8.36087 19.3327C8.22374 19.1037 8.00774 18.9654 7.70449 18.9654C7.49267 18.9654 7.2683 19.0258 7.10636 19.2679V19.0173H6.70752V21.0825H7.11055V19.8985C7.11055 19.5399 7.31819 19.3498 7.61321 19.3498C7.89987 19.3498 8.06181 19.5441 8.06181 19.8942V21.0823H8.46484V19.8984C8.46484 19.5398 8.68084 19.3496 8.9675 19.3496C9.26239 19.3496 9.42028 19.544 9.42028 19.8941V21.0822H9.82317V21.0825ZM16.2951 19.0171H15.5723V18.3907H15.1694V19.0171H14.7498V19.393H15.1694V20.3695C15.1694 20.8491 15.3315 21.1342 15.8424 21.1342C16.0292 21.1342 16.2454 21.0738 16.3824 20.9743L16.2576 20.607C16.1289 20.6849 15.9877 20.7237 15.8755 20.7237C15.6595 20.7237 15.5723 20.5854 15.5723 20.378V19.393H16.2951V19.0171ZM19.9798 18.9654C19.7306 18.9654 19.552 19.0864 19.4398 19.2679V19.0173H19.0451V21.0825H19.4439V19.9203C19.4439 19.5789 19.6018 19.3586 19.8843 19.3586C19.9716 19.3586 20.063 19.3715 20.1544 19.4105L20.2873 19.0216C20.1916 18.9826 20.067 18.9654 19.9798 18.9654ZM14.4092 19.1813C14.2015 19.0387 13.9149 18.9654 13.5991 18.9654C13.0964 18.9654 12.789 19.2116 12.789 19.6221C12.789 19.9591 13.0134 20.1622 13.4578 20.227L13.6614 20.2573C13.8982 20.2918 14.0269 20.3783 14.0269 20.4948C14.0269 20.6547 13.8525 20.7584 13.5576 20.7584C13.2461 20.7584 13.0425 20.6589 12.8971 20.5424L12.6935 20.8665C12.9884 21.0912 13.3416 21.1344 13.5534 21.1344C14.1266 21.1344 14.4424 20.8578 14.4424 20.4647C14.4424 20.1018 14.2014 19.9159 13.7652 19.8511L13.5616 19.8209C13.3747 19.7949 13.2085 19.7345 13.2085 19.5962C13.2085 19.445 13.3664 19.3412 13.6031 19.3412C13.8565 19.3412 14.1016 19.4407 14.222 19.5183L14.4092 19.1813ZM20.4326 20.0499C20.4326 20.6763 20.8354 21.1344 21.4752 21.1344C21.7743 21.1344 21.9737 21.0652 22.1897 20.8881L21.9821 20.564C21.82 20.685 21.6497 20.7498 21.4628 20.7498C21.1181 20.7455 20.848 20.4647 20.848 20.0499C20.848 19.635 21.1181 19.3543 21.4628 19.3499C21.6499 19.3499 21.8202 19.4147 21.9821 19.5357L22.1897 19.2116C21.9737 19.0345 21.7743 18.9654 21.4752 18.9654C20.8356 18.9654 20.4326 19.4233 20.4326 20.0499ZM17.6411 18.9654C17.0595 18.9654 16.6607 19.4018 16.6607 20.0455C16.6607 20.7023 17.0761 21.1344 17.6702 21.1344C17.9693 21.1344 18.2434 21.0565 18.4843 20.8449L18.2725 20.5382C18.1064 20.6765 17.8946 20.7542 17.6951 20.7542C17.4168 20.7542 17.1344 20.5899 17.0845 20.2184H18.5675C18.5717 20.1623 18.5759 20.1061 18.5759 20.0457C18.5716 19.4017 18.1977 18.9654 17.6411 18.9654ZM17.6327 19.3499C17.9276 19.3499 18.127 19.5486 18.1561 19.8727H17.0843C17.1218 19.5702 17.3129 19.3499 17.6327 19.3499ZM12.2573 20.0499V19.0173H11.8585V19.2679C11.7214 19.0821 11.4971 18.9654 11.2147 18.9654C10.6581 18.9654 10.2343 19.4191 10.2343 20.0499C10.2343 20.6807 10.6581 21.1344 11.2147 21.1344C11.4971 21.1344 11.7214 21.0177 11.8585 20.832V21.0826H12.2573V20.0499ZM10.6497 20.0499C10.6497 19.661 10.8865 19.3499 11.2686 19.3499C11.6341 19.3499 11.8751 19.6481 11.8751 20.0499C11.8751 20.4517 11.6341 20.7498 11.2686 20.7498C10.8866 20.7497 10.6497 20.4386 10.6497 20.0499ZM25.9784 18.9654C25.7292 18.9654 25.5505 19.0864 25.4383 19.2679V19.0173H25.0437V21.0825H25.4425V19.9203C25.4425 19.5789 25.6004 19.3586 25.8829 19.3586C25.9701 19.3586 26.0616 19.3715 26.153 19.4105L26.2859 19.0216C26.1902 18.9826 26.0655 18.9654 25.9784 18.9654ZM29.1779 20.7829C29.2056 20.7829 29.2315 20.7882 29.2559 20.7989C29.2802 20.8097 29.3015 20.8243 29.3198 20.8429C29.3379 20.8614 29.3522 20.8832 29.3627 20.9082C29.3731 20.9332 29.3784 20.9597 29.3784 20.9878C29.3784 21.0159 29.3731 21.0425 29.3627 21.0672C29.3522 21.092 29.3379 21.1138 29.3198 21.1323C29.3015 21.1509 29.2803 21.1657 29.2559 21.1765C29.2315 21.1874 29.2056 21.1929 29.1779 21.1929C29.1496 21.1929 29.1231 21.1874 29.0985 21.1765C29.0738 21.1657 29.0525 21.1509 29.0345 21.1323C29.0164 21.1138 29.0022 21.092 28.9917 21.0672C28.9813 21.0425 28.9761 21.0159 28.9761 20.9878C28.9761 20.9597 28.9813 20.9332 28.9917 20.9082C29.0022 20.8833 29.0164 20.8616 29.0345 20.8429C29.0525 20.8242 29.0738 20.8095 29.0985 20.7989C29.1231 20.7882 29.1496 20.7829 29.1779 20.7829ZM29.1779 21.1477C29.1992 21.1477 29.219 21.1435 29.2374 21.1351C29.2558 21.1267 29.2718 21.1152 29.2856 21.1009C29.2996 21.0865 29.3103 21.0696 29.3182 21.0501C29.3262 21.0307 29.3301 21.01 29.3301 20.9878C29.3301 20.9656 29.3262 20.9449 29.3182 20.9255C29.3103 20.9061 29.2996 20.8891 29.2856 20.8748C29.2718 20.8603 29.2557 20.8491 29.2374 20.8408C29.219 20.8326 29.1992 20.8285 29.1779 20.8285C29.1563 20.8285 29.1361 20.8326 29.1173 20.8408C29.0985 20.8491 29.082 20.8603 29.0682 20.8748C29.0544 20.8891 29.0434 20.9061 29.0356 20.9255C29.0277 20.9449 29.0238 20.9656 29.0238 20.9878C29.0238 21.01 29.0277 21.0307 29.0356 21.0501C29.0434 21.0696 29.0544 21.0865 29.0682 21.1009C29.082 21.1152 29.0985 21.1267 29.1173 21.1351C29.1361 21.1435 29.1563 21.1477 29.1779 21.1477ZM29.1895 20.892C29.213 20.892 29.2311 20.8974 29.2438 20.9084C29.2565 20.9193 29.2629 20.934 29.2629 20.9529C29.2629 20.9687 29.2579 20.9816 29.2477 20.9919C29.2375 21.002 29.2232 21.0084 29.2045 21.0107L29.2644 21.0826H29.2176L29.162 21.0113H29.1442V21.0826H29.105V20.8921H29.1895V20.892ZM29.144 20.9277V20.9784H29.1889C29.1992 20.9784 29.2074 20.9764 29.2136 20.9722C29.2197 20.968 29.2228 20.9616 29.2228 20.9529C29.2228 20.9445 29.2197 20.9382 29.2136 20.934C29.2074 20.9298 29.1992 20.9278 29.1889 20.9278H29.144V20.9277ZM24.4496 20.0499V19.0173H24.0507V19.2679C23.9136 19.0821 23.6894 18.9654 23.4069 18.9654C22.8503 18.9654 22.4265 19.4191 22.4265 20.0499C22.4265 20.6807 22.8502 21.1344 23.4069 21.1344C23.6894 21.1344 23.9137 21.0177 24.0507 20.832V21.0826H24.4496V20.0499ZM22.8419 20.0499C22.8419 19.661 23.0787 19.3499 23.4608 19.3499C23.8264 19.3499 24.0673 19.6481 24.0673 20.0499C24.0673 20.4517 23.8264 20.7498 23.4608 20.7498C23.0787 20.7497 22.8419 20.4386 22.8419 20.0499ZM28.4582 20.0499V18.1877H28.0594V19.2679C27.9223 19.0821 27.698 18.9654 27.4154 18.9654C26.8588 18.9654 26.435 19.4191 26.435 20.0499C26.435 20.6807 26.8588 21.1344 27.4154 21.1344C27.6979 21.1344 27.9223 21.0177 28.0594 20.832V21.0826H28.4582V20.0499ZM26.8506 20.0499C26.8506 19.661 27.0874 19.3499 27.4696 19.3499C27.8352 19.3499 28.0761 19.6481 28.0761 20.0499C28.0761 20.4517 27.8352 20.7498 27.4696 20.7498C27.0874 20.7497 26.8506 20.4386 26.8506 20.0499Z" fill="white"/>
<path d="M21.1347 3.3009H13.9453V15.5149H21.1347V3.3009Z" fill="#F16122"/>
<path d="M14.6875 9.40793C14.6875 6.93008 15.8029 4.72328 17.5401 3.30093C16.2697 2.26079 14.6667 1.64014 12.9246 1.64014C8.80029 1.64014 5.45679 5.11797 5.45679 9.40793C5.45679 13.6979 8.80029 17.1757 12.9246 17.1757C14.6667 17.1757 16.2697 16.5552 17.5401 15.5149C15.8029 14.0927 14.6875 11.8859 14.6875 9.40793Z" fill="#E91D25"/>
<path d="M28.9107 14.2208V13.9713H29.0077V13.9204H28.7607V13.9713H28.8577V14.2209H28.9107V14.2208ZM29.3899 14.2208V13.9198H29.3143L29.2272 14.1267L29.1401 13.9198H29.0644V14.2208H29.1179V13.9937L29.1996 14.1895H29.2549L29.3366 13.9933V14.2208H29.3899Z" fill="#F79E1D"/>
<path d="M29.6233 9.40793C29.6233 13.6979 26.2798 17.1757 22.1555 17.1757C20.4133 17.1757 18.8104 16.5552 17.54 15.5149C19.2771 14.0926 20.3924 11.8858 20.3924 9.40793C20.3924 6.93008 19.277 4.72328 17.54 3.30093C18.8104 2.26079 20.4132 1.64014 22.1555 1.64014C26.2799 1.64014 29.6233 5.11797 29.6233 9.40793Z" fill="#F79E1D"/>
</svg>
