<svg width="36" height="23" viewBox="0 0 36 23" fill="none" xmlns="http://www.w3.org/2000/svg">
<g clip-path="url(#clip0)">
<path d="M36 0.107422H0V23.2318H36V0.107422Z" fill="white"/>
<path d="M35.4 19.4745H0.599609V22.6294H35.4V19.4745Z" fill="#F7B600"/>
<path d="M35.4 0.713989H0.599609V3.86902H35.4V0.713989Z" fill="#1A1F71"/>
<path d="M14.5293 7.19993L10.9345 15.8717H8.58943L6.82032 8.95102C6.71311 8.52546 6.61965 8.36906 6.2934 8.18918C5.75989 7.8961 4.87906 7.62201 4.10474 7.45156L4.15706 7.19993H7.93236C8.41327 7.19993 8.84587 7.52345 8.95581 8.08352L9.89039 13.102L12.1985 7.19993H14.5293ZM23.718 13.0407C23.7278 10.7521 20.5895 10.6253 20.6103 9.6027C20.6171 9.29193 20.9101 8.96102 21.551 8.87637C21.8687 8.83492 22.7453 8.80144 23.7391 9.26439L24.1277 7.42474C23.5939 7.2295 22.907 7.0415 22.0526 7.0415C19.8592 7.0415 18.3162 8.21948 18.3039 9.90795C18.2899 11.1565 19.4061 11.8525 20.2453 12.2684C21.1105 12.6934 21.4006 12.966 21.3963 13.3458C21.3903 13.9276 20.7063 14.1852 20.0696 14.1949C18.9534 14.2126 18.3066 13.8899 17.7909 13.6468L17.3883 15.5479C17.9074 15.7883 18.8642 15.9974 19.8547 16.0081C22.1864 16.008 23.7112 14.8436 23.718 13.0407ZM29.51 15.8717H31.5615L29.7692 7.19993H27.8768C27.4502 7.19993 27.0908 7.44996 26.9316 7.83566L23.6025 15.8719H25.9325L26.3951 14.5768H29.2411L29.51 15.8717ZM27.0334 12.7995L28.2013 9.54283L28.8731 12.7995H27.0334ZM17.6994 7.19993L15.8651 15.8717H13.6465L15.481 7.19993H17.6994Z" fill="#1A1F71"/>
</g>
<defs>
<clipPath id="clip0">
<rect width="36" height="23" fill="white"/>
</clipPath>
</defs>
</svg>
